<?xml version="1.0" encoding="UTF-8"?><svg id="a" xmlns="http://www.w3.org/2000/svg" width="1049.67" height="522.85" viewBox="0 0 1049.67 522.85"><path id="b" d="m477.93,274.35c17.82,9.65,27.64,12.08,30.31,6.37,0,0,7.57-8.35,8.69,3.73,19.61,20.84,25.42-2.86,25.42-2.86,2.96-3.18,9.18-7.37,9.18-7.37l2.64,6.56,37.19,5.69s25.34-5.2,40.26-23.63c42.45-52.51,9.63-44.18,9.63-44.18,0,0,33.97-10.14,31.52-64.77-6.91-4.82-7.12-28.15-7.12-28.15,0-7.03,1.79-8.35-.02-14.64,2.22-14.26,0,0,0,0,0,0,.53-28.62-28.98-51.34-5.12-3.96,7.35-28.09-46.14-35.1-16.49-30.71-57.5-17.11-57.5-17.11l-7.14,3.07-4.9-3.07s-36.32-20.2-57.05,12.72c-49.25-8.55-59.07,32.91-59.07,32.91-46.25,30.73-26.3,62.53-26.3,62.53h0s-10.25,21.72-5.12,30.05l-4.9,2.64s-5.12,58.14,34.99,64.51c-7.57,9.65,29.45,69.63,74.44,61.44" fill="none" stroke="#373435" stroke-width="2.83"/><ellipse cx="529.02" cy="279.49" rx="10.72" ry="13.45" fill="#fff" stroke-width="0"/><path id="c" d="m595.43,41.65h0s-7.57-44.44-55.73-32.99c-48.16,11.44,55.73,32.99,55.73,32.99Z" fill="#fefefe" stroke-width="0"/><path id="d" d="m595.43,41.65h0s-7.57-44.44-55.73-32.99c-48.16,11.44,55.73,32.99,55.73,32.99" fill="none" stroke="#373435" stroke-width="1.65"/><path id="e" d="m592.44,37.71s-27.62-23.38-46.03-22.82" fill="none" stroke="#373435" stroke-width="1.65"/><path id="f" d="m448.08,43.25h0s8.65-49.49,63.66-36.74c55.01,12.74-63.66,36.74-63.66,36.74h0Z" fill="#fefefe" stroke-width="0"/><path id="g" d="m448.08,43.25h0s8.65-49.49,63.66-36.74c55.01,12.74-63.66,36.74-63.66,36.74" fill="none" stroke="#373435" stroke-width="1.86"/><path id="h" d="m451.49,38.86s31.54-26.04,52.57-25.42" fill="none" stroke="#373435" stroke-width="1.86"/><path id="i" d="m410.01,67.4h0s-15.39-33.33,36.42-44.26c51.81-10.93-36.42,44.26-36.42,44.26h0Z" fill="#fefefe" stroke-width="0"/><path id="j" d="m410.01,67.4h0s-15.39-33.33,36.42-44.26c51.81-10.93-36.42,44.26-36.42,44.26h0Z" fill="none" stroke="#373435" stroke-width="1.65"/><path id="k" d="m410.85,63.54s14.47-26.73,32.33-33.52" fill="none" stroke="#373435" stroke-width="1.65"/><path id="l" d="m406.41,86.98h0s-2.69-44.54,55.18-45.65c57.86-1.11-55.18,45.65-55.18,45.65Z" fill="#fefefe" stroke-width="0"/><path id="m" d="m406.41,86.98h0s-2.69-44.54,55.18-45.65c57.86-1.11-55.18,45.65-55.18,45.65Z" fill="none" stroke="#373435" stroke-width="1.65"/><path id="n" d="m408.82,82.46s25.55-29.35,46.69-33.44" fill="none" stroke="#373435" stroke-width="1.65"/><path id="o" d="m395.03,135.38h0s-36.89-26.17-3.07-69.05c33.82-42.88,3.07,69.05,3.07,69.05Z" fill="#fefefe" stroke-width="0"/><path id="p" d="m395.03,135.38h0s-36.89-26.17-3.07-69.05c33.82-42.88,3.07,69.05,3.07,69.05Z" fill="none" stroke="#373435" stroke-width="1.65"/><path id="q" d="m392.9,130.76s-7.93-37.17,1.51-55.15" fill="none" stroke="#373435" stroke-width="1.65"/><path id="r" d="m472.29,36.58c0-3.35,3.22-6.09,7.2-6.09s7.2,2.73,7.2,6.09-3.22,6.07-7.2,6.07-7.2-2.71-7.2-6.07Z" fill="#fefefe" stroke-width="0"/><path id="s" d="m472.29,36.58c0-3.35,3.22-6.09,7.2-6.09s7.2,2.73,7.2,6.09-3.22,6.07-7.2,6.07-7.2-2.71-7.2-6.07Z" fill="none" stroke="#373435" stroke-width="1.65"/><path id="t" d="m402.36,98.11h0s34.27,32.26-9.68,63.79c-43.96,31.54,9.68-63.79,9.68-63.79Z" fill="#fefefe" stroke-width="0"/><path id="u" d="m402.36,98.11h0s34.27,32.26-9.68,63.79c-43.96,31.54,9.68-63.79,9.68-63.79Z" fill="none" stroke="#373435" stroke-width="2.09"/><path id="v" d="m402.75,100.96s2.49,37.61-10.93,51.91" fill="none" stroke="#373435" stroke-width="2.09"/><path id="w" d="m410.8,175.83h0s-44.52,4.16-33.88-47.59c10.64-51.76,33.88,47.59,33.88,47.59Z" fill="#fefefe" stroke-width="0"/><path id="x" d="m410.8,175.83h0s-44.52,4.16-33.88-47.59c10.64-51.76,33.88,47.59,33.88,47.59Z" fill="none" stroke="#373435" stroke-width="1.65"/><path id="y" d="m406.82,173.85s-23.81-21.7-23.55-40.47" fill="none" stroke="#373435" stroke-width="1.65"/><path id="z" d="m388.11,149.25c0-3.98,3.28-7.2,7.31-7.2s7.31,3.22,7.31,7.2-3.28,7.2-7.31,7.2-7.31-3.22-7.31-7.2Z" fill="#fefefe" stroke-width="0"/><path id="aa" d="m388.11,149.25c0-3.98,3.28-7.2,7.31-7.2s7.31,3.22,7.31,7.2-3.28,7.2-7.31,7.2-7.31-3.22-7.31-7.2Z" fill="none" stroke="#373435" stroke-width="1.65"/><path id="ab" d="m404.15,147.53c0-5.09,4.18-9.21,9.36-9.21s9.36,4.13,9.36,9.21-4.18,9.21-9.36,9.21-9.36-4.13-9.36-9.21Z" fill="#fefefe" stroke-width="0"/><path id="ac" d="m404.15,147.53c0-5.09,4.18-9.21,9.36-9.21s9.36,4.13,9.36,9.21-4.18,9.21-9.36,9.21-9.36-4.13-9.36-9.21Z" fill="none" stroke="#373435" stroke-width="1.65"/><path id="ad" d="m440.7,214.49h0s-59.33,12.59-69.52-48.8c-10.19-61.38,69.52,48.8,69.52,48.8Z" fill="#fefefe" stroke-width="0"/><path id="ae" d="m440.7,214.49h0s-59.33,12.59-69.52-48.8c-10.19-61.38,69.52,48.8,69.52,48.8Z" fill="none" stroke="#373435" stroke-width="1.65"/><path id="af" d="m434.27,212.89s-43.22-20.8-51.87-42.41" fill="none" stroke="#373435" stroke-width="1.65"/><path id="ag" d="m481.41,274.82c15.39-5.67-27.07-67.9-78.79-69.2-10.83-.26,23.83,76.21,78.79,69.2Z" fill="#fefefe" stroke-width="0"/><path id="ah" d="m481.41,274.82c15.39-5.67-27.07-67.9-78.79-69.2-10.83-.26,23.83,76.21,78.79,69.2Z" fill="none" stroke="#373435" stroke-width="1.65"/><path id="ai" d="m531.24,260.37c4.69-4.62,12.32-4.62,17.01,0,4.69,4.63,4.69,12.13,0,16.75-4.69,4.63-12.32,4.63-17.01,0-4.69-4.63-4.69-12.13,0-16.75h0Z" fill="#fefefe" stroke-width="0"/><path id="aj" d="m531.24,260.37c4.69-4.62,12.32-4.62,17.01,0,4.69,4.63,4.69,12.13,0,16.75-4.69,4.63-12.32,4.63-17.01,0-4.69-4.63-4.69-12.13,0-16.75h0Z" fill="none" stroke="#373435" stroke-width="1.65"/><path id="ak" d="m509.18,260.86c4.18-4.11,11.23-3.82,15.75.62,4.52,4.47,4.8,11.4.62,15.52-4.16,4.11-11.23,3.84-15.75-.62-4.52-4.47-4.8-11.4-.62-15.52h0Z" fill="#fefefe" stroke-width="0"/><path id="al" d="m509.18,260.86c4.18-4.11,11.23-3.82,15.75.62,4.52,4.47,4.8,11.4.62,15.52-4.16,4.11-11.23,3.84-15.75-.62-4.52-4.47-4.8-11.4-.62-15.52h0Z" fill="none" stroke="#373435" stroke-width="1.65"/><path id="am" d="m407.42,210.59s39.08,40.06,64.04,49.72" fill="none" stroke="#373435" stroke-width="1.65"/><path id="an" d="m502.53,281.81c16.67-3.47-13.68-64.55-66.71-72.82-11.12-1.73,20.39,64.15,66.71,72.82Z" fill="#fefefe" stroke-width="0"/><path id="ao" d="m502.53,281.81c16.67-3.47-13.68-64.55-66.71-72.82-11.12-1.73,20.39,64.15,66.71,72.82Z" fill="none" stroke="#373435" stroke-width="1.65"/><path id="ap" d="m631.67,72.4h0s15.39-33.31-36.42-44.26c-51.79-10.93,36.42,44.26,36.42,44.26Z" fill="#fefefe" stroke-width="0"/><path id="aq" d="m631.67,72.4h0s15.39-33.31-36.42-44.26c-51.79-10.93,36.42,44.26,36.42,44.26Z" fill="none" stroke="#373435" stroke-width="1.65"/><path id="ar" d="m630.8,68.55s-14.47-26.73-32.33-33.52" fill="none" stroke="#373435" stroke-width="1.65"/><path id="as" d="m635.26,91.97h0s2.69-44.54-55.18-45.65,55.18,45.65,55.18,45.65Z" fill="#fefefe" stroke-width="0"/><path id="at" d="m635.26,91.97h0s2.69-44.54-55.18-45.65,55.18,45.65,55.18,45.65Z" fill="none" stroke="#373435" stroke-width="1.65"/><path id="au" d="m632.85,87.45s-25.55-29.35-46.69-33.44" fill="none" stroke="#373435" stroke-width="1.65"/><path id="av" d="m574.22,39.31c0-4.37,3.99-7.89,8.91-7.89s8.91,3.54,8.91,7.89-3.99,7.89-8.91,7.89-8.91-3.54-8.91-7.89Z" fill="#fefefe" stroke-width="0"/><path id="aw" d="m574.22,39.31c0-4.37,3.99-7.89,8.91-7.89s8.91,3.54,8.91,7.89-3.99,7.89-8.91,7.89-8.91-3.54-8.91-7.89Z" fill="none" stroke="#373435" stroke-width="1.65"/><path id="ax" d="m646.62,140.37h0s36.89-26.17,3.07-69.05c-33.82-42.88-3.07,69.05-3.07,69.05Z" fill="#fefefe" stroke-width="0"/><path id="ay" d="m646.62,140.37h0s36.89-26.17,3.07-69.05c-33.82-42.88-3.07,69.05-3.07,69.05Z" fill="none" stroke="#373435" stroke-width="1.65"/><path id="az" d="m648.77,135.76s7.93-37.17-1.51-55.15" fill="none" stroke="#373435" stroke-width="1.65"/><path id="ba" d="m620.3,87.45c0-3.24,2.81-5.88,6.27-5.88s6.27,2.64,6.27,5.88-2.81,5.88-6.27,5.88-6.27-2.64-6.27-5.88Z" fill="#fefefe" stroke-width="0"/><path id="bb" d="m620.3,87.45c0-3.24,2.81-5.88,6.27-5.88s6.27,2.64,6.27,5.88-2.81,5.88-6.27,5.88-6.27-2.64-6.27-5.88Z" fill="none" stroke="#373435" stroke-width="1.65"/><path id="bc" d="m638.24,155.62h0s-35.78-27.92-7.97-51.53c27.81-23.61,7.97,51.53,7.97,51.53Z" fill="#fefefe" stroke-width="0"/><path id="bd" d="m638.24,155.62h0s-35.78-27.92-7.97-51.53c27.81-23.61,7.97,51.53,7.97,51.53Z" fill="none" stroke="#373435" stroke-width="1.65"/><path id="be" d="m635.94,151.72s-10.04-29.22-2.73-40.22" fill="none" stroke="#373435" stroke-width="1.65"/><path id="bf" d="m630.87,180.84h0s44.52,4.16,33.88-47.59c-10.64-51.76-33.88,47.59-33.88,47.59Z" fill="#fefefe" stroke-width="0"/><path id="bg" d="m630.87,180.84h0s44.52,4.16,33.88-47.59c-10.64-51.76-33.88,47.59-33.88,47.59Z" fill="none" stroke="#373435" stroke-width="1.65"/><path id="bh" d="m634.85,178.86s23.8-21.7,23.53-40.47" fill="none" stroke="#373435" stroke-width="1.65"/><path id="bi" d="m600.96,219.49h0s59.33,12.59,69.52-48.8c10.19-61.38-69.52,48.8-69.52,48.8Z" fill="#fefefe" stroke-width="0"/><path id="bj" d="m600.96,219.49h0s59.33,12.59,69.52-48.8c10.19-61.38-69.52,48.8-69.52,48.8Z" fill="none" stroke="#373435" stroke-width="1.65"/><path id="bk" d="m607.38,217.9s43.22-20.8,51.89-42.41" fill="none" stroke="#373435" stroke-width="1.65"/><path id="bl" d="m615.52,238.89h0s-33.74-27.21,4.71-64.19c38.45-37-4.71,64.19-4.71,64.19Z" fill="#fefefe" stroke-width="0"/><path id="bm" d="m615.52,238.89h0s-33.74-27.21,4.71-64.19c38.45-37-4.71,64.19-4.71,64.19Z" fill="none" stroke="#373435" stroke-width="1.77"/><path id="bn" d="m613.92,234.43s-3.71-35.06,7.71-50.94" fill="none" stroke="#373435" stroke-width="1.77"/><path id="bo" d="m573.45,285.5c-15.39-5.67,22.27-62.91,73.99-64.21,10.83-.26-19.03,71.2-73.99,64.21Z" fill="#fefefe" stroke-width="0"/><path id="bp" d="m573.45,285.5c-15.39-5.67,22.27-62.91,73.99-64.21,10.83-.26-19.03,71.2-73.99,64.21Z" fill="none" stroke="#373435" stroke-width="1.65"/><path id="bq" d="m650.39,221.29s-50.29,48.97-75.25,58.63" fill="none" stroke="#373435" stroke-width="1.65"/><path id="br" d="m607.23,217.15c15.6,1.62-4.79,56.8-52.13,68.28-9.93,2.41,10.95-57.01,52.13-68.28Z" fill="#fefefe" stroke-width="0"/><path id="bs" d="m607.23,217.15c15.6,1.62-4.79,56.8-52.13,68.28-9.93,2.41,10.95-57.01,52.13-68.28Z" fill="none" stroke="#373435" stroke-width="1.77"/><path id="bt" d="m607.23,217.15c4.43,4.37-50.29,55.79-52.17,66.56" fill="none" stroke="#373435" stroke-width="1.77"/><path id="bu" d="m621.04,159.48c0-5.09,4.18-9.21,9.36-9.21s9.36,4.13,9.36,9.21-4.18,9.21-9.36,9.21-9.36-4.13-9.36-9.21Z" fill="#fefefe" stroke-width="0"/><path id="bv" d="m621.04,159.48c0-5.09,4.18-9.21,9.36-9.21s9.36,4.13,9.36,9.21-4.18,9.21-9.36,9.21-9.36-4.13-9.36-9.21Z" fill="none" stroke="#373435" stroke-width="1.65"/><path id="bw" d="m435.16,210.87c19.16,30.28,32.99,45.63,70.43,71.97" fill="none" stroke="#373435" stroke-width="1.89"/><polygon id="bx" points="600.22 234.95 525.23 181.33 450.25 234.95 478.89 148.17 403.9 94.55 496.6 94.55 525.23 7.75 553.87 94.55 646.57 94.55 571.58 148.17 600.22 234.95" fill="#fefefe" stroke-width="0"/><polygon id="by" points="600.22 234.95 525.23 181.33 450.25 234.95 478.89 148.17 403.9 94.55 496.6 94.55 525.23 7.75 553.87 94.55 646.57 94.55 571.58 148.17 600.22 234.95" fill="none" stroke="#373435" stroke-width="1.65"/><polygon id="bz" points="577.1 206.33 523.73 167.01 470.37 206.33 490.76 142.73 437.38 103.41 503.34 103.41 523.73 39.8 544.13 103.41 610.09 103.41 556.72 142.73 577.1 206.33" fill="none" stroke="#373435" stroke-width="1.65"/><line id="ca" x1="503.44" y1="103.35" x2="523.44" y2="121.82" fill="none" stroke="#373435" stroke-width="1.65"/><line id="cb" x1="544.58" y1="103.35" x2="524.33" y2="121.82" fill="none" stroke="#373435" stroke-width="1.65"/><line id="cc" x1="491" y1="142.69" x2="523.44" y2="121.82" fill="none" stroke="#373435" stroke-width="1.65"/><line id="cd" x1="555.27" y1="142.69" x2="522.56" y2="123.57" fill="none" stroke="#373435" stroke-width="1.65"/><line id="ce" x1="522.79" y1="123.13" x2="606.19" y2="104.8" fill="none" stroke="#373435" stroke-width="1.65"/><line id="cf" x1="522.56" y1="123.57" x2="522.56" y2="167" fill="none" stroke="#373435" stroke-width="1.65"/><line id="cg" x1="574.07" y1="204.68" x2="522.56" y2="123.57" fill="none" stroke="#373435" stroke-width="1.65"/><line id="ch" x1="472.61" y1="203.38" x2="522.79" y2="123.13" fill="none" stroke="#373435" stroke-width="1.65"/><line id="ci" x1="439.81" y1="104.46" x2="523.12" y2="122.25" fill="none" stroke="#373435" stroke-width="1.65"/><line id="cj" x1="524.33" y1="41.46" x2="524.33" y2="122.7" fill="none" stroke="#373435" stroke-width="1.65"/><path id="ck" d="m400.21,86.11c0-4.37,3.99-7.89,8.91-7.89s8.91,3.54,8.91,7.89-3.99,7.89-8.91,7.89-8.91-3.54-8.91-7.89Z" fill="#fefefe" stroke-width="0"/><path id="cl" d="m400.21,86.11c0-4.37,3.99-7.89,8.91-7.89s8.91,3.54,8.91,7.89-3.99,7.89-8.91,7.89-8.91-3.54-8.91-7.89Z" fill="none" stroke="#373435" stroke-width="1.65"/><polygon id="cm" points="495.07 93.1 495.07 93.1 518.47 24.41 518.47 24.41 495.07 93.1" fill="none" stroke="#373435" stroke-width="2.78"/><line id="cn" x1="417.64" y1="92.44" x2="494.64" y2="91.78" fill="none" stroke="#373435" stroke-width="2.78"/><path id="co" d="m417.64,92.44s7.35-4.01,3.5-8.31c0,0,65.19-33.05,58.41-38.08-6.78-5.03,0,0,0,0,0,0,13.9.17,9.85-10.29-1.53-3.94,25.15-4.8,28.22-11.81" fill="none" stroke="#373435" stroke-width="2.78"/><path id="cp" d="m533.56,23.52c3.07,10.49,22.31,67.81,22.31,67.81l63,.87-1.32-5.24s-47.06-20.84-53.81-30.63c-8.76-12.7-4.28-9.99,9.19-12.7,2.19-.43-2.19-6.99-2.19-6.99h0s-31.5-5.69-37.19-13.13h0v.02Z" fill="none" stroke="#373435" stroke-width="2.78"/><path id="cq" d="m618.89,117.6c-1.32,2.19-43.75,31.93-43.75,31.93l22.31,67.81,2.19-1.3s-9.63-27.56,22.76-47.25c0,0-13.13-16.64,4.8-21.01,21.87-6.56,0,0,0,0,0,0-17.05-14-8.31-30.2h0v.02Z" fill="none" stroke="#373435" stroke-width="2.78"/><path id="cr" d="m473.2,222.61c7.01-5.26,52.06-37.62,52.06-37.62l58.2,42s-22.53,2.84-29.75,38.94c-.43,2.19-2.19-25.38-24.51-6.58-11.38-14-23.63-.43-23.63-.43,0,0-20.12-35.01-32.37-36.31h0Z" fill="none" stroke="#373435" stroke-width="2.78"/><path id="cs" d="m406.69,99.66c5.69,3.94,68.26,50.32,68.26,50.32l-20.12,63.44-6.12-3.94h0s-26.04-49.21-36.1-50.96c0,0,26.68-7.44,3.71-22.1,13.34,10.12,0,0,0,0,0,0,4.37-20.57-9.63-36.76h0Z" fill="none" stroke="#373435" stroke-width="2.78"/><path id="ct" d="m447.84,211.21h0s-39.41,12.3-46.76-40.02c-7.37-52.32,46.76,40.02,46.76,40.02h0Z" fill="#fefefe" stroke-width="0"/><path id="cu" d="m447.84,211.21h0s-39.41,12.3-46.76-40.02c-7.37-52.32,46.76,40.02,46.76,40.02h0Z" fill="none" stroke="#373435" stroke-width="1.71"/><path id="cv" d="m443.54,210.03s-29-16.71-34.95-35.01" fill="none" stroke="#373435" stroke-width="1.71"/><path id="cw" d="m622.57,291.63s1.22,12.8,20.12,12.19,10.97-34.14,10.97-34.14c-7.92-6.71-25.6-60.96,10.36-66.44,56.17-8.57,104.24.61,104.24.61,51.2-1.22,39.01-4.27,67.05-11.58,28.04-7.31,17.68,13.41,17.68,13.41,0,0,126.18-3.05,174.95-12.19,0,0,23.77-5.49,14.63,28.65,0,0,12.8,18.9-4.27,34.75,0,0,3.66,26.21-21.34,39.01,0,0-4.27,38.4-55.47,44.5,0,0-17.07,34.75-90.83,19.51,0,0-15.85,23.16-46.94,20.12,0,0-7.92,11.58-30.48,6.71,0,0,1.83,18.9-26.82,16.46,0,0,1.83,21.94-20.12,13.41,0,0,1.83,24.99-23.77,18.29,0,0-4.27,15.85-23.77,11.58,0,0-6.1,16.46-24.99,7.92,0,0-11.58,12.19-26.21,6.71,0,0-12.19,13.41-35.96,6.1-4.96,2.94-21.75,17.91-50.59,17.37,0,0-38.71,18.29-38.71,31.09m-.41,0c0-12.8-32.61-30.78-32.61-30.78-39.01-5.49-51.2-16.46-51.2-16.46-23.77,7.31-35.96-6.1-35.96-6.1-14.63,5.49-26.21-6.71-26.21-6.71-18.9,8.53-24.99-7.92-24.99-7.92-19.51,4.27-23.77-11.58-23.77-11.58-25.6,6.71-23.77-18.29-23.77-18.29-21.94,8.53-20.12-13.41-20.12-13.41-28.65,2.44-26.82-16.46-26.82-16.46-22.55,4.88-30.48-6.71-30.48-6.71-31.09,3.05-46.94-20.12-46.94-20.12-73.76,15.24-90.83-19.51-90.83-19.51-51.2-6.1-55.47-44.5-55.47-44.5-24.99-12.8-21.34-39.01-21.34-39.01-17.07-15.85-4.27-34.75-4.27-34.75-9.14-34.14,14.63-28.65,14.63-28.65,48.77,9.14,174.95,12.19,174.95,12.19,0,0-10.36-20.73,17.68-13.41,28.04,7.31,15.85,10.36,67.05,11.58,0,0,48.07-9.18,104.24-.61,35.96,5.49,18.29,59.74,10.36,66.44,0,0-7.92,33.53,10.97,34.14,18.9.61,20.12-12.19,20.12-12.19l195.47-1.22" fill="#efeded" stroke="#505050" stroke-width="5"/><path id="cx" d="m197.7,207.45s-66.48,1.32-172.16-11.77c0,0-20.35,1.46-8.76,28.89,0,0,41.55,53.83,205.73,26.21" fill="none" stroke="#968c91" stroke-width="5"/><path id="cy" d="m38.75,217.03s38.36,20.69,162.07,15.52" fill="none" stroke="#968c91" stroke-width="5"/><path id="cz" d="m16.34,224.8s-27.16,25.43,25.43,47.41c0,0,53.88,24.14,234.05,4.31" fill="none" stroke="#968c91" stroke-width="5"/><path id="da" d="m19.78,259.7s-8.77,45.91,66.38,50c104.16,5.66,166.81-7.76,186.21-10.78" fill="none" stroke="#968c91" stroke-width="5"/><path id="db" d="m41.77,297.41s-4.04,40.59,64.92,43.28c75.71,2.95,179.52-27.43,179.52-27.43" fill="none" stroke="#968c91" stroke-width="5"/><path id="dc" d="m94.19,338.87s-3.66,33.53,87.78,20.73c91.44-12.8,109.72-26.21,109.72-26.21" fill="none" stroke="#968c91" stroke-width="5"/><path id="dd" d="m183.8,358.99s14.63,34.14,61.57,12.8c46.94-21.34,58.52-32.92,58.52-32.92" fill="none" stroke="#96918c" stroke-width="5"/><path id="de" d="m227.69,377.27s12.7,21.09,57.3,3.66c26.52-10.36,34.75-20.73,34.75-20.73" fill="none" stroke="#96918c" stroke-width="5"/><path id="df" d="m256.95,387.64s11.85,24.78,34.14,12.19c27.35-15.46,34.44-33.53,34.44-33.53" fill="none" stroke="#96918c" stroke-width="5"/><path id="dg" d="m282.85,402.56s.3,20.42,20.42,12.8" fill="none" stroke="#96918c" stroke-width="5"/><path id="dh" d="m310.9,383.68s-11.58,40.23,0,46.94c11.27,6.52,17.98,2.74,17.98,2.74" fill="none" stroke="#96918c" stroke-width="5"/><path id="di" d="m336.8,373.91s-14.02,46.63-7.31,60.65,20.73,9.45,20.73,9.45" fill="none" stroke="#96918c" stroke-width="5"/><path id="dj" d="m353.35,384.25s-11.82,41.63-3.35,58.21c8.65,16.93,22.55,10.36,22.55,10.36" fill="none" stroke="#96918c" stroke-width="5"/><path id="dk" d="m370.02,387.93s-5.79,40.84.91,54.86c6.71,14.02,15.85,17.68,29.87,16.46" fill="none" stroke="#96918c" stroke-width="5"/><path id="dl" d="m388.71,393.47s-2.96,39.8,5.18,53.03c9.75,15.85,17.07,20.12,31.09,18.9" fill="none" stroke="#96918c" stroke-width="5"/><path id="dm" d="m411.48,397.69s-6.4,35.66,1.22,48.46,7.92,19.81,28.04,22.86" fill="none" stroke="#96918c" stroke-width="5"/><path id="dn" d="m851.18,207.02s66.48,2.18,172.16-10.91c0,0,20.35,1.46,8.76,28.89,0,0-41.55,53.83-205.73,26.21" fill="none" stroke="#968c91" stroke-width="5"/><path id="do" d="m1010.13,217.45s-38.36,20.69-162.07,15.52" fill="none" stroke="#968c91" stroke-width="5"/><path id="dp" d="m1032.55,225.22s27.16,25.43-25.43,47.41c0,0-53.88,24.14-234.05,4.31" fill="none" stroke="#968c91" stroke-width="5"/><path id="dq" d="m1029.1,260.14s8.77,45.91-66.38,50c-104.16,5.66-166.81-7.76-186.21-10.78" fill="none" stroke="#968c91" stroke-width="5"/><path id="dr" d="m1007.12,297.83s4.04,40.59-64.92,43.28c-75.71,2.95-179.52-27.43-179.52-27.43" fill="none" stroke="#968c91" stroke-width="5"/><path id="ds" d="m954.69,339.3s3.66,33.53-87.78,20.73c-91.44-12.8-109.72-26.21-109.72-26.21" fill="none" stroke="#968c91" stroke-width="5"/><path id="dt" d="m865.08,359.4s-14.63,34.14-61.57,12.8-58.52-32.92-58.52-32.92" fill="none" stroke="#96918c" stroke-width="5"/><path id="du" d="m821.19,377.69s-12.7,21.09-57.3,3.66c-26.52-10.36-34.75-20.73-34.75-20.73" fill="none" stroke="#96918c" stroke-width="5"/><path id="dv" d="m791.94,388.06s-11.85,24.78-34.14,12.19c-27.35-15.46-34.44-33.53-34.44-33.53" fill="none" stroke="#96918c" stroke-width="5"/><path id="dw" d="m766.03,402.99s-.3,20.42-20.42,12.8" fill="none" stroke="#96918c" stroke-width="5"/><path id="dx" d="m737.99,384.09s11.58,40.23,0,46.94c-11.27,6.52-17.98,2.74-17.98,2.74" fill="none" stroke="#96918c" stroke-width="5"/><path id="dy" d="m712.08,374.34s14.02,46.63,7.31,60.65-20.73,9.45-20.73,9.45" fill="none" stroke="#96918c" stroke-width="5"/><path id="dz" d="m695.53,384.68s11.82,41.63,3.35,58.21c-8.65,16.93-22.55,10.36-22.55,10.36" fill="none" stroke="#96918c" stroke-width="5"/><path id="ea" d="m678.86,388.37s5.79,40.84-.91,54.86-15.85,17.68-29.87,16.46" fill="none" stroke="#96918c" stroke-width="5"/><path id="eb" d="m660.17,393.9s2.96,39.8-5.18,53.03c-9.75,15.85-17.07,20.12-31.09,18.9" fill="none" stroke="#96918c" stroke-width="5"/><path id="ec" d="m637.41,398.12s6.4,35.66-1.22,48.46-7.92,19.81-28.04,22.86" fill="none" stroke="#96918c" stroke-width="5"/><path id="ed" d="m401.22,351.89s-13.87,50.14,19.51,44.19" fill="none" stroke="#968278" stroke-width="4"/><path id="ee" d="m376.59,345.84s-23.93,49.53,25.75,46.02" fill="none" stroke="#968278" stroke-width="4"/><path id="ef" d="m357.85,338.99s-38.86,47.09,18.74,47.09" fill="none" stroke="#968278" stroke-width="4"/><path id="eg" d="m341.33,324.14s-17.68,10.52-17.83,26.21c-.19,19.37,7.31,25.75,21.64,22.25" fill="none" stroke="#968278" stroke-width="4"/><path id="eh" d="m331.88,306.92s-26.52,9.45-27.43,28.04,2.29,22.71,18.44,25.45" fill="none" stroke="#968278" stroke-width="4"/><path id="ei" d="m319.38,292.3s-25.6,1.52-30.33,21.03c-4.72,19.51,5.03,21.18,14.02,22.55" fill="none" stroke="#968278" stroke-width="4"/><path id="ej" d="m284.18,275.69s-15.24.91-13.87,17.37c1.37,16.46,15.24,17.68,18.9,16.76" fill="none" stroke="#968278" stroke-width="4"/><path id="ek" d="m197.95,202.86s-5.86-11.21,9.22-8.19,14.66,5.17,14.66,5.17c0,0,22.62,78.23,104.3,58.62,0,0,2.93-.65,3.77-3.88,0,0-11.73-12.72,6.91-15.09,0,0,10.26,2.8,7.54,11.85s-13.82,21.98-27.65,22.84-41.05,1.72-60.74-8.41c-19.69-10.13-46.7-18.97-59.69-58.41" fill="none" stroke="#968278" stroke-width="4"/><path id="el" d="m303.69,232.41s69.19-31.7,66.75,32.31c0,0-20.42,17.68.61,52.73,0,0,18.59,21.64,48.77,5.79" fill="none" stroke="#968278" stroke-width="4"/><path id="em" d="m647.88,352.44s13.87,50.14-19.51,44.19" fill="none" stroke="#968278" stroke-width="4"/><path id="en" d="m672.51,346.4s23.93,49.53-25.75,46.02" fill="none" stroke="#968278" stroke-width="4"/><path id="eo" d="m691.25,339.56s38.86,47.09-18.74,47.09" fill="none" stroke="#968278" stroke-width="4"/><path id="ep" d="m707.77,324.7s17.68,10.52,17.83,26.21c.19,19.37-7.31,25.75-21.64,22.25" fill="none" stroke="#968278" stroke-width="4"/><path id="eq" d="m717.22,307.49s26.52,9.45,27.43,28.04c.91,18.59-2.29,22.71-18.44,25.45" fill="none" stroke="#968278" stroke-width="4"/><path id="er" d="m729.71,292.86s25.6,1.52,30.33,21.03c4.72,19.51-5.03,21.18-14.02,22.55" fill="none" stroke="#968278" stroke-width="4"/><path id="es" d="m764.92,276.25s15.24.91,13.87,17.37c-1.37,16.46-15.24,17.68-18.9,16.76" fill="none" stroke="#968278" stroke-width="4"/><path id="et" d="m851.99,203.41s5.9-11.21-9.27-8.19c-15.17,3.02-14.75,5.17-14.75,5.17,0,0-22.75,78.23-104.91,58.62,0,0-2.95-.65-3.79-3.88,0,0,11.8-12.72-6.95-15.09,0,0-10.32,2.8-7.58,11.85s13.9,21.98,27.81,22.84,41.29,1.72,61.09-8.41,46.98-18.97,60.04-58.41" fill="none" stroke="#968278" stroke-width="4"/><path id="eu" d="m745.41,232.97s-69.19-31.7-66.75,32.31c0,0,20.42,17.68-.61,52.73,0,0-18.59,21.64-48.77,5.79" fill="none" stroke="#968278" stroke-width="4"/><path id="ev" d="m292.47,280.92c6.15-2.35,16.67-1.43,20.69-.43" fill="none" stroke="#968278" stroke-width="2"/><path id="ew" d="m316.18,298.59c5.31-2.19,9.76-2.59,12.07-2.59" fill="none" stroke="#968278" stroke-width="2"/><path id="ex" d="m339.02,313.25c2.01-2.61,6.2-3.92,7.76-4.31" fill="none" stroke="#968278" stroke-width="2"/><path id="ey" d="m351.52,327.47c.59-.62,2.9-5.6,8.19-5.6" fill="none" stroke="#968278" stroke-width="2"/><path id="ez" d="m367.47,343.43c.14-5.87,4.81-8.26,8.19-11.64" fill="none" stroke="#968278" stroke-width="2"/><path id="fa" d="m386.86,349.9c-.66-3.07,5.26-9.57,8.19-12.5" fill="none" stroke="#968278" stroke-width="2"/><path id="fb" d="m414.88,337.83c-9.96,11.09-11.73,44.37,3.88,48.28" fill="none" stroke="#968278" stroke-width="2"/><path id="fc" d="m388.59,376.62c.21.37,4.1,5.17,9.05,5.17" fill="none" stroke="#968278" stroke-width="2"/><path id="fd" d="m364.02,371.87c1.3,2.92,5.06,3.17,6.47,3.88" fill="none" stroke="#968278" stroke-width="2"/><path id="fe" d="m337.73,349.9c-5.68,8.1,3.56,16.41,6.9,17.24" fill="none" stroke="#968278" stroke-width="2"/><path id="ff" d="m316.18,339.97c-1.73,5.81,4.18,8.91,6.47,9.48" fill="none" stroke="#968278" stroke-width="2"/><path id="fg" d="m298.5,324.47c-.45,4.58,1.8,5.62,5.17,6.47" fill="none" stroke="#968278" stroke-width="2"/><path id="fh" d="m286,298.59c-.56,4.75,2.61,4.75,5.17,6.03" fill="none" stroke="#968278" stroke-width="2"/><path id="fi" d="m755.37,281.66c-6.15-2.35-16.67-1.43-20.69-.43" fill="none" stroke="#968278" stroke-width="2"/><path id="fj" d="m731.66,299.33c-5.31-2.19-9.76-2.59-12.07-2.59" fill="none" stroke="#968278" stroke-width="2"/><path id="fk" d="m708.81,314c-2.01-2.61-6.2-3.92-7.76-4.31" fill="none" stroke="#968278" stroke-width="2"/><path id="fl" d="m696.31,328.22c-.59-.62-2.9-5.6-8.19-5.6" fill="none" stroke="#968278" stroke-width="2"/><path id="fm" d="m680.37,344.16c-.14-5.87-4.81-8.26-8.19-11.64" fill="none" stroke="#968278" stroke-width="2"/><path id="fn" d="m660.97,350.64c.66-3.07-5.26-9.57-8.19-12.5" fill="none" stroke="#968278" stroke-width="2"/><path id="fo" d="m632.95,338.56c9.96,11.09,11.73,44.37-3.88,48.28" fill="none" stroke="#968278" stroke-width="2"/><path id="fp" d="m659.25,377.36c-.21.37-4.1,5.17-9.05,5.17" fill="none" stroke="#968278" stroke-width="2"/><path id="fq" d="m683.81,372.62c-1.3,2.92-5.06,3.17-6.47,3.88" fill="none" stroke="#968278" stroke-width="2"/><path id="fr" d="m710.11,350.64c5.68,8.1-3.56,16.41-6.9,17.24" fill="none" stroke="#968278" stroke-width="2"/><path id="fs" d="m731.66,340.71c1.73,5.81-4.18,8.91-6.47,9.48" fill="none" stroke="#968278" stroke-width="2"/><path id="ft" d="m749.33,325.2c.45,4.58-1.8,5.62-5.17,6.47" fill="none" stroke="#968278" stroke-width="2"/><path id="fu" d="m761.83,299.33c.56,4.75-2.61,4.75-5.17,6.03" fill="none" stroke="#968278" stroke-width="2"/><path id="fv" d="m522.29,516.81c0-9.22,24.38-25.02,24.38-25.02,13.72-9.22,44.8-16.6,44.8-16.6,30.78-9.84,27.74-35.41,28.65-47.35l-.61-146.98,8.23-14.76-31.09-30.44s-35.87,26.64-71.83-12.1c-35.96,38.74-76.48,12.1-76.48,12.1l-31.09,30.44,8.23,14.76-.61,146.98c.91,11.95-2.13,37.51,28.65,47.35,0,0,31.09,7.38,44.8,16.6,0,0,23.96,15.8,23.96,25.03h.01Z" fill="#dcdcdc" stroke="#505050" stroke-width="5"/><path id="fw" d="m524.61,240.83c35.71,30.79,67.23,8,67.23,8l24.86,22.92-6.78,8.77-.37,139.24c-.82,10.55,3.74,38.61-23.89,47.3,0,0-26.08,4.38-38.4,12.53,0,0-23.72,10.91-23.72,19.05,0-8.15-23.58-18.4-23.58-18.4-12.31-8.15-38.4-12.53-38.4-12.53-27.64-8.69-23.08-36.75-23.89-47.3l-.37-139.24-6.78-8.77,24.86-22.92s35.02,20.66,70.73-10.13" fill="none" stroke="#505050" stroke-width="4.5"/><path id="fx" d="m524.18,251.89c-36.68,25.63-67.86,5.55-67.86,5.55l-16.79,15.47,4.86,6.63v38.88h82.64" fill="#505050" stroke="#505050"/><path id="fy" d="m523.89,251.41c35.78,25.46,67.37,6.41,67.37,6.41l16.38,15.36-4.74,6.58v38.62h-80.6" fill="#505050" stroke="#505050"/><path id="fz" d="m444.7,268.44c.61,1.83,157.88,0,157.88,0" fill="none" stroke="#fff"/><path id="ga" d="m440.13,273.24c.64,1.83,167.02,0,167.02,0" fill="none" stroke="#fff"/><path id="gb" d="m444.13,281.03c.61,1.83,158.49,0,158.49,0" fill="none" stroke="#fff"/><path id="gc" d="m445,287.86c.61,1.83,158.49,0,158.49,0" fill="none" stroke="#fff"/><path id="gd" d="m444.7,295.19c.61,1.83,158.49,0,158.49,0" fill="none" stroke="#fff"/><path id="ge" d="m444.39,302.19c.61,1.83,158.49,0,158.49,0" fill="none" stroke="#fff"/><path id="gf" d="m444.39,310.72c.61,1.83,158.49,0,158.49,0" fill="none" stroke="#fff"/><path id="gg" d="m522.47,328.91l78.88-.43c-1.74.86-.65,112.93-.65,112.93,0,0-3.05,16.81-27.89,21.55s-49.37,15.73-48.93,20.91c.43-5.17-25.43-16.16-50-20.91s-27.59-21.55-27.59-21.55c0,0,1.08-112.07-.65-112.93l78.02.43" fill="#505050" stroke="#505050"/><path id="gh" d="m523.7,480.77c-7.63-6.95-20.85-15.91-42.66-19.87-31.09-4.32-30.28-19.22-30.28-19.22,0,0,1.01-102.18-.61-102.96l73.45.39" fill="#dcdcdc" stroke="#e6e6e6"/><path id="gi" d="m523.52,480.77c7.63-6.95,20.15-15.96,41.96-19.92,31.09-4.32,30.28-19.22,30.28-19.22,0,0-1.01-102.18.61-102.96l-73.45.39" fill="#dcdcdc" stroke="#e6e6e6"/><path id="gj" d="m585.23,335.12l.79,120.47c-4.27,1.12-7.61,2.99-7.78,3.01l-1.58-123.49h8.57Z" fill="#505050" stroke="#505050"/><path id="gk" d="m461.02,334.71l-.61,121.28c6.49,1.03,3.84,1.7,8.37,2.26l1.38-123.54h-9.14Z" fill="#505050" stroke="#505050"/><path id="gl" d="m486.4,334.59l-.54,127.99c7.07,1.58,7.75,2.96,7.69,2.73l.92-130.72h-8.07Z" fill="#505050" stroke="#505050"/><path id="gm" d="m560.04,334.68l.5,127.53c-6.57,1.57-7.7,2.83-7.64,2.6l-.36-130.13h7.5Z" fill="#505050" stroke="#505050"/><path id="gn" d="m510.39,334.84l-.37,138.18c6.88,1.7,7.39,3.51,7.34,3.26l.89-141.45h-7.86Z" fill="#505050" stroke="#505050"/><path id="go" d="m535.9,334.68l.37,139.04c-6.88,1.72-7.39,3.53-7.34,3.28l-.89-142.33h7.86Z" fill="#505050" stroke="#505050"/><path id="gp" d="m504.12,334.68l-.23,133.97c2.93,1.64,3.45,1.9,3.43,1.66l.15-135.63h-3.35Z" fill="#505050" stroke="#505050"/><path id="gq" d="m542.32,334.49l.23,133.97c-2.93,1.64-3.45,1.9-3.43,1.66l-.15-135.63h3.35Z" fill="#505050" stroke="#505050"/><path id="gr" d="m567.32,334.74l.3,125.95c-3.8,1.55-4.48,1.79-4.45,1.56l-.2-127.51h4.35Z" fill="#505050" stroke="#505050"/><path id="gs" d="m591.62,335.12l.24,117.08c-2.99,1.44-3.53,1.66-3.5,1.45l-.15-118.54h3.42,0Z" fill="#505050" stroke="#505050"/><path id="gt" d="m454.45,334.58l-.24,117.3c2.99,1.44,3.53,1.67,3.5,1.46l.15-118.76h-3.42.01Z" fill="#505050" stroke="#505050"/><path id="gu" d="m478.68,334.89l-.3,125.95c3.8,1.55,4.48,1.79,4.45,1.56l.2-127.51h-4.35Z" fill="#505050" stroke="#505050"/></svg>