<?xml version="1.0" encoding="UTF-8" standalone="no"?>
<!-- Created with Inkscape (http://www.inkscape.org/) -->

<svg
   xmlns:dc="http://purl.org/dc/elements/1.1/"
   xmlns:cc="http://creativecommons.org/ns#"
   xmlns:rdf="http://www.w3.org/1999/02/22-rdf-syntax-ns#"
   xmlns:svg="http://www.w3.org/2000/svg"
   xmlns="http://www.w3.org/2000/svg"
   xmlns:sodipodi="http://sodipodi.sourceforge.net/DTD/sodipodi-0.dtd"
   xmlns:inkscape="http://www.inkscape.org/namespaces/inkscape"
   width="1049.6853"
   height="416.71811"
   id="svg2"
   version="1.1"
   inkscape:version="0.48.4 r9939"
   sodipodi:docname="SeniorPilot USAF.svg">
  <defs
     id="defs4" />
  <sodipodi:namedview
     id="base"
     pagecolor="#ffffff"
     bordercolor="#666666"
     borderopacity="1.0"
     inkscape:pageopacity="0.0"
     inkscape:pageshadow="2"
     inkscape:zoom="0.58"
     inkscape:cx="379.70534"
     inkscape:cy="293.58966"
     inkscape:document-units="px"
     inkscape:current-layer="layer1"
     showgrid="false"
     inkscape:window-width="1304"
     inkscape:window-height="746"
     inkscape:window-x="54"
     inkscape:window-y="-8"
     inkscape:window-maximized="1"
     fit-margin-top="0"
     fit-margin-left="0"
     fit-margin-right="0"
     fit-margin-bottom="0" />
  <metadata
     id="metadata7">
    <rdf:RDF>
      <cc:Work
         rdf:about="">
        <dc:format>image/svg+xml</dc:format>
        <dc:type
           rdf:resource="http://purl.org/dc/dcmitype/StillImage" />
        <dc:title />
      </cc:Work>
    </rdf:RDF>
  </metadata>
  <g
     inkscape:label="Layer 1"
     inkscape:groupmode="layer"
     id="layer1"
     transform="translate(197.21953,-132.65326)">
    <path
       id="path2996-1"
       style="fill:#efeded;fill-opacity:1;stroke:#505050;stroke-width:5;stroke-linecap:butt;stroke-linejoin:miter;stroke-miterlimit:4;stroke-opacity:1;stroke-dasharray:none"
       d="m 425.36035,319.95394 c 0,0 1.21915,12.80107 20.11597,12.1915 18.89681,-0.60958 10.97235,-34.1362 10.97235,-34.1362 -7.92448,-6.70532 -25.60215,-60.95747 10.36276,-66.44365 56.17163,-8.56854 104.2373,0.60957 104.2373,0.60957 51.20429,-1.21915 39.01279,-4.26702 67.05323,-11.5819 28.04044,-7.3149 17.67767,13.41063 17.67767,13.41063 0,0 126.18198,-3.04787 174.94797,-12.19149 0,0 23.77341,-5.48617 14.62979,28.65001 0,0 12.80107,18.89682 -4.26702,34.74577 0,0 3.65745,26.21171 -21.33512,39.01278 0,0 -4.26702,38.40322 -55.47131,44.49896 0,0 -17.06809,34.74577 -90.82664,19.5064 0,0 -15.84895,23.16384 -46.93726,20.11597 0,0 -7.92447,11.58192 -30.47874,6.70532 0,0 1.82872,18.89682 -26.82129,16.45852 0,0 1.82872,21.94469 -20.11598,13.41065 0,0 1.82873,24.99256 -23.77341,18.28724 0,0 -4.26703,15.84895 -23.77342,11.58192 0,0 -6.09575,16.45852 -24.99257,7.92447 0,0 -11.58192,12.1915 -26.21172,6.70533 0,0 -12.19149,13.41064 -35.96491,6.09574 -4.95638,2.93711 -21.74621,17.90999 -50.59471,17.37288 0,0 -38.708,18.28725 -38.708,31.08833 m -0.4105,0.004 c 0,-12.80108 -32.61226,-30.78354 -32.61226,-30.78354 -39.01278,-5.48617 -51.20428,-16.45852 -51.20428,-16.45852 -23.77342,7.3149 -35.96491,-6.09574 -35.96491,-6.09574 -14.6298,5.48617 -26.21172,-6.70533 -26.21172,-6.70533 -18.89682,8.53405 -24.99257,-7.92447 -24.99257,-7.92447 -19.50639,4.26703 -23.77342,-11.58192 -23.77342,-11.58192 -25.60214,6.70532 -23.77341,-18.28724 -23.77341,-18.28724 -21.944699,8.53404 -20.115975,-13.41065 -20.115975,-13.41065 -28.650016,2.4383 -26.821291,-16.45852 -26.821291,-16.45852 -22.554268,4.8766 -30.478741,-6.70532 -30.478741,-6.70532 -31.0883153,3.04787 -46.937261,-20.11597 -46.937261,-20.11597 -73.758554,15.23937 -90.826642,-19.5064 -90.826642,-19.5064 -51.20429,-6.09574 -55.47131,-44.49896 -55.47131,-44.49896 -24.99257,-12.80107 -21.33512,-39.01278 -21.33512,-39.01278 -17.06809,-15.84895 -4.26702,-34.74577 -4.26702,-34.74577 -9.14362,-34.13619 14.62979,-28.65002 14.62979,-28.65002 48.76599,9.14363 174.94797204,12.1915 174.94797204,12.1915 0,0 -10.36277204,-20.72554 17.67766996,-13.41064 28.040441,7.31489 15.848941,10.36276 67.053228,11.58191 0,0 48.06567,-9.17812 104.2373,-0.60957 35.96491,5.48618 18.28724,59.73833 10.36276,66.44365 0,0 -7.92446,33.52662 10.97235,34.1362 18.89682,0.60957 20.11597,-12.1915 20.11597,-12.1915 l 195.47445,-1.22326"
       inkscape:connector-curvature="0"
       sodipodi:nodetypes="cscscsccccccccccccccccccccccccccccccccccccscscscc" />
    <path
       style="fill:none;stroke:#968c91;stroke-width:5;stroke-linecap:butt;stroke-linejoin:miter;stroke-miterlimit:4;stroke-opacity:1;stroke-dasharray:none"
       d="m 0.49152972,235.78668 c 0,0 -66.48081872,1.31925 -172.16130972,-11.76867 0,0 -20.34629,1.45594 -8.76437,28.88681 0,0 41.5535,53.83009 205.731505,26.21171"
       id="path3791"
       inkscape:connector-curvature="0"
       sodipodi:nodetypes="cccc" />
    <path
       style="fill:none;stroke:#968c91;stroke-width:5;stroke-linecap:butt;stroke-linejoin:miter;stroke-miterlimit:4;stroke-opacity:1;stroke-dasharray:none"
       d="m -158.4601,245.36953 c 0,0 38.36207,20.68966 162.0689719,15.51724"
       id="path3793"
       inkscape:connector-curvature="0" />
    <path
       style="fill:none;stroke:#968c91;stroke-width:5;stroke-linecap:butt;stroke-linejoin:miter;stroke-miterlimit:4;stroke-opacity:1;stroke-dasharray:none"
       d="m -180.87389,253.12815 c 0,0 -27.15517,25.43104 25.43103,47.4138 0,0 53.87932,24.13793 234.051732,4.31034"
       id="path3795"
       inkscape:connector-curvature="0"
       sodipodi:nodetypes="ccc" />
    <path
       style="fill:none;stroke:#968c91;stroke-width:5;stroke-linecap:butt;stroke-linejoin:miter;stroke-miterlimit:4;stroke-opacity:1;stroke-dasharray:none"
       d="m -177.42561,288.04195 c 0,0 -8.76721,45.91459 66.37931,50 104.1647509,5.66302 166.810344,-7.75862 186.206896,-10.77586"
       id="path3797"
       inkscape:connector-curvature="0"
       sodipodi:nodetypes="csc" />
    <path
       style="fill:none;stroke:#968c91;stroke-width:5;stroke-linecap:butt;stroke-linejoin:miter;stroke-miterlimit:4;stroke-opacity:1;stroke-dasharray:none"
       d="m -155.44158,325.74901 c 0,0 -4.04194,40.59244 64.919721,43.2798 75.71288,2.95046 179.519781,-27.43086 179.519781,-27.43086"
       id="path3801"
       inkscape:connector-curvature="0"
       sodipodi:nodetypes="csc" />
    <path
       style="fill:none;stroke:#968c91;stroke-width:5;stroke-linecap:butt;stroke-linejoin:miter;stroke-miterlimit:4;stroke-opacity:1;stroke-dasharray:none"
       d="m -103.01814,367.20009 c 0,0 -3.65745,33.52662 87.778771,20.72555 91.43622,-12.80107 109.723462,-26.21172 109.723462,-26.21172"
       id="path3803"
       inkscape:connector-curvature="0" />
    <path
       style="fill:none;stroke:#96918c;stroke-width:5;stroke-linecap:butt;stroke-linejoin:miter;stroke-miterlimit:4;stroke-opacity:1;stroke-dasharray:none"
       d="m -13.410649,387.31606 c 0,0 14.6297989,34.13619 61.567059,12.80107 46.937263,-21.33511 58.51918,-32.91704 58.51918,-32.91704"
       id="path3805"
       inkscape:connector-curvature="0" />
    <path
       style="fill:none;stroke:#96918c;stroke-width:5;stroke-linecap:butt;stroke-linejoin:miter;stroke-miterlimit:4;stroke-opacity:1;stroke-dasharray:none"
       d="m 30.478741,405.60331 c 0,0 12.702983,21.08618 57.300032,3.65745 26.516497,-10.36277 34.745757,-20.72555 34.745757,-20.72555"
       id="path3807"
       inkscape:connector-curvature="0"
       sodipodi:nodetypes="csc" />
    <path
       style="fill:none;stroke:#96918c;stroke-width:5;stroke-linecap:butt;stroke-linejoin:miter;stroke-miterlimit:4;stroke-opacity:1;stroke-dasharray:none"
       d="m 59.738331,415.96608 c 0,0 11.849462,24.78489 34.136192,12.1915 C 121.2266,412.70195 128.3155,394.63096 128.3155,394.63096"
       id="path3809"
       inkscape:connector-curvature="0"
       sodipodi:nodetypes="csc" />
    <path
       style="fill:none;stroke:#96918c;stroke-width:5;stroke-linecap:butt;stroke-linejoin:miter;stroke-miterlimit:4;stroke-opacity:1;stroke-dasharray:none"
       d="m 85.645261,430.90066 c 0,0 0.304787,20.42076 20.420749,12.80107"
       id="path3811"
       inkscape:connector-curvature="0" />
    <path
       style="fill:none;stroke:#96918c;stroke-width:5;stroke-linecap:butt;stroke-linejoin:miter;stroke-miterlimit:4;stroke-opacity:1;stroke-dasharray:none"
       d="m 113.6857,412.00384 c 0,0 -11.58193,40.23194 -1e-5,46.93726 11.26831,6.52376 17.98246,2.74309 17.98246,2.74309"
       id="path3813"
       inkscape:connector-curvature="0"
       sodipodi:nodetypes="csc" />
    <path
       style="fill:none;stroke:#96918c;stroke-width:5;stroke-linecap:butt;stroke-linejoin:miter;stroke-miterlimit:4;stroke-opacity:1;stroke-dasharray:none"
       d="m 139.59263,402.25065 c 0,0 -14.02022,46.63247 -7.3149,60.65269 6.70532,14.02022 20.72554,9.4484 20.72554,9.4484"
       id="path3815"
       inkscape:connector-curvature="0"
       sodipodi:nodetypes="csc" />
    <path
       style="fill:none;stroke:#96918c;stroke-width:5;stroke-linecap:butt;stroke-linejoin:miter;stroke-miterlimit:4;stroke-opacity:1;stroke-dasharray:none"
       d="m 156.14154,412.58912 c 0,0 -11.82463,41.63415 -3.35266,58.21439 8.65286,16.93427 22.55426,10.36277 22.55426,10.36277"
       id="path3815-7"
       inkscape:connector-curvature="0"
       sodipodi:nodetypes="csc" />
    <path
       style="fill:none;stroke:#96918c;stroke-width:5;stroke-linecap:butt;stroke-linejoin:miter;stroke-miterlimit:4;stroke-opacity:1;stroke-dasharray:none"
       d="m 172.81446,416.27087 c 0,0 -5.79096,40.84151 0.91436,54.86173 6.70532,14.02022 15.84894,17.67767 29.86916,16.45852"
       id="path3835"
       inkscape:connector-curvature="0"
       sodipodi:nodetypes="csc" />
    <path
       style="fill:none;stroke:#96918c;stroke-width:5;stroke-linecap:butt;stroke-linejoin:miter;stroke-miterlimit:4;stroke-opacity:1;stroke-dasharray:none"
       d="m 191.50114,421.80553 c 0,0 -2.9637,39.79724 5.18138,53.03301 9.75319,15.84894 17.0681,20.11597 31.08832,18.89682"
       id="path3835-4"
       inkscape:connector-curvature="0"
       sodipodi:nodetypes="csc" />
    <path
       style="fill:none;stroke:#96918c;stroke-width:5;stroke-linecap:butt;stroke-linejoin:miter;stroke-miterlimit:4;stroke-opacity:1;stroke-dasharray:none"
       d="m 214.26554,426.02406 c 0,0 -6.40053,35.66013 1.21915,48.4612 7.61969,12.80107 7.92448,19.81118 28.04044,22.85906"
       id="path3855"
       inkscape:connector-curvature="0" />
    <path
       style="fill:none;stroke:#968c91;stroke-width:5;stroke-linecap:butt;stroke-linejoin:miter;stroke-miterlimit:4;stroke-opacity:1;stroke-dasharray:none"
       d="m 653.97223,235.3478 c 0,0 66.48081,2.18132 172.1613,-10.9066 0,0 20.34629,1.45594 8.76437,28.88681 0,0 -41.5535,53.83009 -205.7315,26.21171"
       id="path3791-0"
       inkscape:connector-curvature="0"
       sodipodi:nodetypes="cccc" />
    <path
       style="fill:none;stroke:#968c91;stroke-width:5;stroke-linecap:butt;stroke-linejoin:miter;stroke-miterlimit:4;stroke-opacity:1;stroke-dasharray:none"
       d="m 812.92385,245.79272 c 0,0 -38.36207,20.68966 -162.06897,15.51724"
       id="path3793-9"
       inkscape:connector-curvature="0" />
    <path
       style="fill:none;stroke:#968c91;stroke-width:5;stroke-linecap:butt;stroke-linejoin:miter;stroke-miterlimit:4;stroke-opacity:1;stroke-dasharray:none"
       d="m 835.33764,253.55134 c 0,0 27.15517,25.43104 -25.43103,47.4138 0,0 -53.87932,24.13797 -234.05173,4.31034"
       id="path3795-4"
       inkscape:connector-curvature="0"
       sodipodi:nodetypes="ccc" />
    <path
       style="fill:none;stroke:#968c91;stroke-width:5;stroke-linecap:butt;stroke-linejoin:miter;stroke-miterlimit:4;stroke-opacity:1;stroke-dasharray:none"
       d="m 831.88936,288.46514 c 0,0 8.76721,45.91457 -66.37931,49.99997 -104.16475,5.663 -166.81034,-7.7586 -186.2069,-10.7758"
       id="path3797-8"
       inkscape:connector-curvature="0"
       sodipodi:nodetypes="csc" />
    <path
       style="fill:none;stroke:#968c91;stroke-width:5;stroke-linecap:butt;stroke-linejoin:miter;stroke-miterlimit:4;stroke-opacity:1;stroke-dasharray:none"
       d="m 809.90533,326.17221 c 0,0 4.04194,40.5924 -64.91972,43.2798 -75.71288,2.9504 -179.51978,-27.4309 -179.51978,-27.4309"
       id="path3801-8"
       inkscape:connector-curvature="0"
       sodipodi:nodetypes="csc" />
    <path
       style="fill:none;stroke:#968c91;stroke-width:5;stroke-linecap:butt;stroke-linejoin:miter;stroke-miterlimit:4;stroke-opacity:1;stroke-dasharray:none"
       d="m 757.48189,367.62331 c 0,0 3.65745,33.5266 -87.77877,20.7255 -91.43622,-12.8011 -109.72346,-26.2117 -109.72346,-26.2117"
       id="path3803-2"
       inkscape:connector-curvature="0" />
    <path
       style="fill:none;stroke:#96918c;stroke-width:5;stroke-linecap:butt;stroke-linejoin:miter;stroke-miterlimit:4;stroke-opacity:1;stroke-dasharray:none"
       d="m 667.8744,387.73921 c 0,0 -14.6298,34.1362 -61.56706,12.8011 -46.93726,-21.3351 -58.51918,-32.917 -58.51918,-32.917"
       id="path3805-4"
       inkscape:connector-curvature="0" />
    <path
       style="fill:none;stroke:#96918c;stroke-width:5;stroke-linecap:butt;stroke-linejoin:miter;stroke-miterlimit:4;stroke-opacity:1;stroke-dasharray:none"
       d="m 623.98501,406.02651 c 0,0 -12.70298,21.0862 -57.30003,3.6574 -26.5165,-10.3627 -34.74576,-20.7255 -34.74576,-20.7255"
       id="path3807-5"
       inkscape:connector-curvature="0"
       sodipodi:nodetypes="csc" />
    <path
       style="fill:none;stroke:#96918c;stroke-width:5;stroke-linecap:butt;stroke-linejoin:miter;stroke-miterlimit:4;stroke-opacity:1;stroke-dasharray:none"
       d="m 594.72542,416.38931 c 0,0 -11.84946,24.7848 -34.13619,12.1915 -27.35208,-15.4557 -34.44098,-33.5267 -34.44098,-33.5267"
       id="path3809-5"
       inkscape:connector-curvature="0"
       sodipodi:nodetypes="csc" />
    <path
       style="fill:none;stroke:#96918c;stroke-width:5;stroke-linecap:butt;stroke-linejoin:miter;stroke-miterlimit:4;stroke-opacity:1;stroke-dasharray:none"
       d="m 568.81849,431.32381 c 0,0 -0.30479,20.4208 -20.42075,12.8011"
       id="path3811-1"
       inkscape:connector-curvature="0" />
    <path
       style="fill:none;stroke:#96918c;stroke-width:5;stroke-linecap:butt;stroke-linejoin:miter;stroke-miterlimit:4;stroke-opacity:1;stroke-dasharray:none"
       d="m 540.77805,412.42701 c 0,0 11.58193,40.232 10e-6,46.9373 -11.26831,6.5237 -17.98246,2.7431 -17.98246,2.7431"
       id="path3813-7"
       inkscape:connector-curvature="0"
       sodipodi:nodetypes="csc" />
    <path
       style="fill:none;stroke:#96918c;stroke-width:5;stroke-linecap:butt;stroke-linejoin:miter;stroke-miterlimit:4;stroke-opacity:1;stroke-dasharray:none"
       d="m 514.87112,402.67381 c 0,0 14.02022,46.6325 7.3149,60.6527 -6.70532,14.0202 -20.72554,9.4484 -20.72554,9.4484"
       id="path3815-1"
       inkscape:connector-curvature="0"
       sodipodi:nodetypes="csc" />
    <path
       style="fill:none;stroke:#96918c;stroke-width:5;stroke-linecap:butt;stroke-linejoin:miter;stroke-miterlimit:4;stroke-opacity:1;stroke-dasharray:none"
       d="m 498.32221,413.01231 c 0,0 11.82463,41.6341 3.35266,58.2144 -8.65286,16.9342 -22.55426,10.3627 -22.55426,10.3627"
       id="path3815-7-1"
       inkscape:connector-curvature="0"
       sodipodi:nodetypes="csc" />
    <path
       style="fill:none;stroke:#96918c;stroke-width:5;stroke-linecap:butt;stroke-linejoin:miter;stroke-miterlimit:4;stroke-opacity:1;stroke-dasharray:none"
       d="m 481.64929,416.69401 c 0,0 5.79096,40.8416 -0.91436,54.8618 -6.70532,14.0202 -15.84894,17.6776 -29.86916,16.4585"
       id="path3835-5"
       inkscape:connector-curvature="0"
       sodipodi:nodetypes="csc" />
    <path
       style="fill:none;stroke:#96918c;stroke-width:5;stroke-linecap:butt;stroke-linejoin:miter;stroke-miterlimit:4;stroke-opacity:1;stroke-dasharray:none"
       d="m 462.96261,422.22871 c 0,0 2.9637,39.7972 -5.18138,53.033 -9.75319,15.8489 -17.0681,20.116 -31.08832,18.8968"
       id="path3835-4-2"
       inkscape:connector-curvature="0"
       sodipodi:nodetypes="csc" />
    <path
       style="fill:none;stroke:#96918c;stroke-width:5;stroke-linecap:butt;stroke-linejoin:miter;stroke-miterlimit:4;stroke-opacity:1;stroke-dasharray:none"
       d="m 440.19821,426.44721 c 0,0 6.40053,35.6602 -1.21915,48.4612 -7.61969,12.8011 -7.92448,19.8112 -28.04044,22.8591"
       id="path3855-7"
       inkscape:connector-curvature="0" />
    <path
       style="fill:none;stroke:#968278;stroke-width:4;stroke-linecap:butt;stroke-linejoin:miter;stroke-miterlimit:4;stroke-opacity:1;stroke-dasharray:none"
       d="m 204.00837,380.2174 c 0,0 -13.86782,50.13753 19.5064,44.19417"
       id="path3920"
       inkscape:connector-curvature="0"
       sodipodi:nodetypes="cc" />
    <path
       style="fill:none;stroke:#968278;stroke-width:4;stroke-linecap:butt;stroke-linejoin:miter;stroke-miterlimit:4;stroke-opacity:1;stroke-dasharray:none"
       d="m 179.37739,374.18168 c 0,0 -23.9258,49.52796 25.75455,46.0229"
       id="path3920-6"
       inkscape:connector-curvature="0"
       sodipodi:nodetypes="cc" />
    <path
       style="fill:none;stroke:#968278;stroke-width:4;stroke-linecap:butt;stroke-linejoin:miter;stroke-miterlimit:4;stroke-opacity:1;stroke-dasharray:none"
       d="m 160.6365,367.3275 c 0,0 -38.86038,47.08966 18.74444,47.08966"
       id="path3920-6-1"
       inkscape:connector-curvature="0"
       sodipodi:nodetypes="cc" />
    <path
       style="fill:none;stroke:#968278;stroke-width:4;stroke-linecap:butt;stroke-linejoin:miter;stroke-miterlimit:4;stroke-opacity:1;stroke-dasharray:none"
       d="m 144.11765,352.48175 c 0,0 -17.67768,10.51516 -17.83006,26.21172 -0.18803,19.36808 7.3149,25.75453 21.6399,22.24947"
       id="path3976"
       inkscape:connector-curvature="0"
       sodipodi:nodetypes="csc" />
    <path
       style="fill:none;stroke:#968278;stroke-width:4;stroke-linecap:butt;stroke-linejoin:miter;stroke-miterlimit:4;stroke-opacity:1;stroke-dasharray:none"
       d="m 134.66924,335.26126 c 0,0 -26.51651,9.44841 -27.43087,28.04044 -0.91436,18.59203 2.28591,22.70666 18.43964,25.44975"
       id="path3978"
       inkscape:connector-curvature="0" />
    <path
       style="fill:none;stroke:#968278;stroke-width:4;stroke-linecap:butt;stroke-linejoin:miter;stroke-miterlimit:4;stroke-opacity:1;stroke-dasharray:none"
       d="m 122.17295,320.63146 c 0,0 -25.602144,1.52394 -30.326344,21.03033 -4.72421,19.5064 5.02899,21.18273 14.020224,22.55427"
       id="path3980"
       inkscape:connector-curvature="0" />
    <path
       style="fill:none;stroke:#968278;stroke-width:4;stroke-linecap:butt;stroke-linejoin:miter;stroke-miterlimit:4;stroke-opacity:1;stroke-dasharray:none"
       d="m 86.970006,304.02055 c 0,0 -15.23937,0.91436 -13.86783,17.37288 1.37154,16.45852 15.23937,17.67767 18.89682,16.76331"
       id="path3982"
       inkscape:connector-curvature="0" />
    <path
       style="fill:none;stroke:#968278;stroke-width:4;stroke-linecap:butt;stroke-linejoin:miter;stroke-miterlimit:4;stroke-opacity:1;stroke-dasharray:none"
       d="m 0.74421843,231.18309 c 0,0 -5.86430163,-11.2069 9.21533667,-8.18966 15.0796379,3.01725 14.6607539,5.17242 14.6607539,5.17242 0,0 22.619467,78.23276 104.300851,58.62069 0,0 2.93215,-0.64655 3.76991,-3.87931 0,0 -11.72861,-12.71552 6.9115,-15.08621 0,0 10.26253,2.80172 7.53982,11.85345 -2.72271,9.05172 -13.82301,21.98276 -27.64601,22.84483 -13.823,0.86206 -41.050136,1.72413 -60.737443,-8.40518 -19.687306,-10.12931 -46.70499,-18.96551 -59.6902361,-58.40517"
       id="path3984"
       inkscape:connector-curvature="0"
       sodipodi:nodetypes="csccccsssc" />
    <path
       style="fill:none;stroke:#968278;stroke-width:4;stroke-linecap:butt;stroke-linejoin:miter;stroke-miterlimit:4;stroke-opacity:1;stroke-dasharray:none"
       d="m 106.4764,260.74074 c 0,0 69.18674,-31.69789 66.74844,32.30746 0,0 -20.42075,17.67767 0.60958,52.72822 0,0 18.59203,21.63991 48.76598,5.79096"
       id="path3988"
       inkscape:connector-curvature="0" />
    <path
       style="fill:none;stroke:#968278;stroke-width:4;stroke-linecap:butt;stroke-linejoin:miter;stroke-miterlimit:4;stroke-opacity:1;stroke-dasharray:none"
       d="m 450.66701,380.77478 c 0,0 13.86782,50.1375 -19.5064,44.1941"
       id="path3920-2"
       inkscape:connector-curvature="0"
       sodipodi:nodetypes="cc" />
    <path
       style="fill:none;stroke:#968278;stroke-width:4;stroke-linecap:butt;stroke-linejoin:miter;stroke-miterlimit:4;stroke-opacity:1;stroke-dasharray:none"
       d="m 475.29799,374.73898 c 0,0 23.9258,49.528 -25.75455,46.0229"
       id="path3920-6-3"
       inkscape:connector-curvature="0"
       sodipodi:nodetypes="cc" />
    <path
       style="fill:none;stroke:#968278;stroke-width:4;stroke-linecap:butt;stroke-linejoin:miter;stroke-miterlimit:4;stroke-opacity:1;stroke-dasharray:none"
       d="m 494.03888,367.88488 c 0,0 38.86038,47.0896 -18.74444,47.0896"
       id="path3920-6-1-2"
       inkscape:connector-curvature="0"
       sodipodi:nodetypes="cc" />
    <path
       style="fill:none;stroke:#968278;stroke-width:4;stroke-linecap:butt;stroke-linejoin:miter;stroke-miterlimit:4;stroke-opacity:1;stroke-dasharray:none"
       d="m 510.55773,353.03908 c 0,0 17.67768,10.5152 17.83006,26.2117 0.18803,19.3681 -7.3149,25.7546 -21.6399,22.2495"
       id="path3976-2"
       inkscape:connector-curvature="0"
       sodipodi:nodetypes="csc" />
    <path
       style="fill:none;stroke:#968278;stroke-width:4;stroke-linecap:butt;stroke-linejoin:miter;stroke-miterlimit:4;stroke-opacity:1;stroke-dasharray:none"
       d="m 520.00614,335.81858 c 0,0 26.51651,9.4484 27.43087,28.0405 0.91436,18.592 -2.28591,22.7066 -18.43964,25.4497"
       id="path3978-1"
       inkscape:connector-curvature="0" />
    <path
       style="fill:none;stroke:#968278;stroke-width:4;stroke-linecap:butt;stroke-linejoin:miter;stroke-miterlimit:4;stroke-opacity:1;stroke-dasharray:none"
       d="m 532.50243,321.18879 c 0,0 25.60214,1.52399 30.32634,21.03029 4.72421,19.5064 -5.02899,21.1828 -14.02022,22.5543"
       id="path3980-6"
       inkscape:connector-curvature="0" />
    <path
       style="fill:none;stroke:#968278;stroke-width:4;stroke-linecap:butt;stroke-linejoin:miter;stroke-miterlimit:4;stroke-opacity:1;stroke-dasharray:none"
       d="m 567.70537,304.57788 c 0,0 15.23937,0.91436 13.86783,17.3729 -1.37154,16.4585 -15.23937,17.6777 -18.89682,16.7633"
       id="path3982-8"
       inkscape:connector-curvature="0" />
    <path
       style="fill:none;stroke:#968278;stroke-width:4;stroke-linecap:butt;stroke-linejoin:miter;stroke-miterlimit:4;stroke-opacity:1;stroke-dasharray:none"
       d="m 654.7835,231.74042 c 0,0 5.89834,-11.2069 -9.26882,-8.18966 -15.16716,3.01725 -14.74584,5.17242 -14.74584,5.17242 0,0 -22.75075,78.23276 -104.90619,58.62069 0,0 -2.94917,-0.64655 -3.79179,-3.87931 0,0 11.79667,-12.71552 -6.95162,-15.08621 0,0 -10.32209,2.80172 -7.58358,11.85345 2.73851,9.05172 13.90323,21.98276 27.80646,22.84483 13.90323,0.86206 41.28839,1.72413 61.08995,-8.40518 19.80157,-10.12931 46.97607,-18.96551 60.03668,-58.40517"
       id="path3984-5"
       inkscape:connector-curvature="0"
       sodipodi:nodetypes="csccccsssc" />
    <path
       style="fill:none;stroke:#968278;stroke-width:4;stroke-linecap:butt;stroke-linejoin:miter;stroke-miterlimit:4;stroke-opacity:1;stroke-dasharray:none"
       d="m 548.19898,261.29807 c 0,0 -69.18674,-31.69789 -66.74844,32.30746 0,0 20.42075,17.67767 -0.60958,52.72825 0,0 -18.59203,21.6399 -48.76598,5.7909"
       id="path3988-7"
       inkscape:connector-curvature="0" />
    <path
       style="fill:none;stroke:#968278;stroke-width:2;stroke-linecap:butt;stroke-linejoin:miter;stroke-miterlimit:4;stroke-opacity:1;stroke-dasharray:none"
       d="m 95.258626,309.25873 c 6.152024,-2.3507 16.674694,-1.43477 20.689654,-0.43103"
       id="path4032"
       inkscape:connector-curvature="0" />
    <path
       style="fill:none;stroke:#968278;stroke-width:2;stroke-linecap:butt;stroke-linejoin:miter;stroke-miterlimit:4;stroke-opacity:1;stroke-dasharray:none"
       d="m 118.96552,326.93115 c 5.31495,-2.19407 9.76216,-2.58621 12.06897,-2.58621"
       id="path4034"
       inkscape:connector-curvature="0" />
    <path
       style="fill:none;stroke:#968278;stroke-width:2;stroke-linecap:butt;stroke-linejoin:miter;stroke-miterlimit:4;stroke-opacity:1;stroke-dasharray:none"
       d="m 141.81035,341.58632 c 2.00529,-2.60792 6.20498,-3.92193 7.75862,-4.31034"
       id="path4036"
       inkscape:connector-curvature="0" />
    <path
       style="fill:none;stroke:#968278;stroke-width:2;stroke-linecap:butt;stroke-linejoin:miter;stroke-miterlimit:4;stroke-opacity:1;stroke-dasharray:none"
       d="m 154.31035,355.81046 c 0.59424,-0.62079 2.90058,-5.60345 8.18965,-5.60345"
       id="path4038"
       inkscape:connector-curvature="0" />
    <path
       style="fill:none;stroke:#968278;stroke-width:2;stroke-linecap:butt;stroke-linejoin:miter;stroke-miterlimit:4;stroke-opacity:1;stroke-dasharray:none"
       d="m 170.25863,371.75873 c 0.14263,-5.87485 4.81348,-8.26175 8.18965,-11.63793"
       id="path4040"
       inkscape:connector-curvature="0" />
    <path
       style="fill:none;stroke:#968278;stroke-width:2;stroke-linecap:butt;stroke-linejoin:miter;stroke-miterlimit:4;stroke-opacity:1;stroke-dasharray:none"
       d="m 189.65518,378.22425 c -0.65567,-3.07005 5.26038,-9.57072 8.18965,-12.5"
       id="path4042"
       inkscape:connector-curvature="0" />
    <path
       style="fill:none;stroke:#968278;stroke-width:2;stroke-linecap:butt;stroke-linejoin:miter;stroke-miterlimit:4;stroke-opacity:1;stroke-dasharray:none"
       d="m 217.67242,366.15529 c -9.95792,11.08609 -11.72846,44.37392 3.87931,48.27586"
       id="path4044"
       inkscape:connector-curvature="0" />
    <path
       style="fill:none;stroke:#968278;stroke-width:2;stroke-linecap:butt;stroke-linejoin:miter;stroke-miterlimit:4;stroke-opacity:1;stroke-dasharray:none"
       d="m 191.37931,404.94839 c 0.21013,0.37366 4.10006,5.17241 9.05173,5.17241"
       id="path4046"
       inkscape:connector-curvature="0" />
    <path
       style="fill:none;stroke:#968278;stroke-width:2;stroke-linecap:butt;stroke-linejoin:miter;stroke-miterlimit:4;stroke-opacity:1;stroke-dasharray:none"
       d="m 166.81035,400.20701 c 1.29881,2.91776 5.05532,3.17421 6.46552,3.87931"
       id="path4048"
       inkscape:connector-curvature="0" />
    <path
       style="fill:none;stroke:#968278;stroke-width:2;stroke-linecap:butt;stroke-linejoin:miter;stroke-miterlimit:4;stroke-opacity:1;stroke-dasharray:none"
       d="m 140.51725,378.22425 c -5.67654,8.09661 3.56008,16.40727 6.89655,17.24138"
       id="path4050"
       inkscape:connector-curvature="0" />
    <path
       style="fill:none;stroke:#968278;stroke-width:2;stroke-linecap:butt;stroke-linejoin:miter;stroke-miterlimit:4;stroke-opacity:1;stroke-dasharray:none"
       d="m 118.96552,368.31046 c -1.73104,5.81488 4.18303,8.91214 6.46552,9.48276"
       id="path4052"
       inkscape:connector-curvature="0" />
    <path
       style="fill:none;stroke:#968278;stroke-width:2;stroke-linecap:butt;stroke-linejoin:miter;stroke-miterlimit:4;stroke-opacity:1;stroke-dasharray:none"
       d="m 101.29311,352.79322 c -0.4535,4.58055 1.80139,5.62276 5.17241,6.46551"
       id="path4054"
       inkscape:connector-curvature="0" />
    <path
       style="fill:none;stroke:#968278;stroke-width:2;stroke-linecap:butt;stroke-linejoin:miter;stroke-miterlimit:4;stroke-opacity:1;stroke-dasharray:none"
       d="m 88.793106,326.93115 c -0.56408,4.75422 2.61227,4.75441 5.17241,6.03448"
       id="path4056"
       inkscape:connector-curvature="0" />
    <path
       style="fill:none;stroke:#968278;stroke-width:2;stroke-linecap:butt;stroke-linejoin:miter;stroke-miterlimit:4;stroke-opacity:1;stroke-dasharray:none"
       d="m 558.15675,309.99866 c -6.15202,-2.3507 -16.67469,-1.43477 -20.68965,-0.43103"
       id="path4032-6"
       inkscape:connector-curvature="0" />
    <path
       style="fill:none;stroke:#968278;stroke-width:2;stroke-linecap:butt;stroke-linejoin:miter;stroke-miterlimit:4;stroke-opacity:1;stroke-dasharray:none"
       d="m 534.44986,327.67108 c -5.31495,-2.19407 -9.76216,-2.58621 -12.06897,-2.58621"
       id="path4034-1"
       inkscape:connector-curvature="0" />
    <path
       style="fill:none;stroke:#968278;stroke-width:2;stroke-linecap:butt;stroke-linejoin:miter;stroke-miterlimit:4;stroke-opacity:1;stroke-dasharray:none"
       d="m 511.60503,342.32625 c -2.00529,-2.60792 -6.20498,-3.92193 -7.75862,-4.31034"
       id="path4036-8"
       inkscape:connector-curvature="0" />
    <path
       style="fill:none;stroke:#968278;stroke-width:2;stroke-linecap:butt;stroke-linejoin:miter;stroke-miterlimit:4;stroke-opacity:1;stroke-dasharray:none"
       d="m 499.10503,356.55039 c -0.59424,-0.62079 -2.90058,-5.60345 -8.18965,-5.60345"
       id="path4038-9"
       inkscape:connector-curvature="0" />
    <path
       style="fill:none;stroke:#968278;stroke-width:2;stroke-linecap:butt;stroke-linejoin:miter;stroke-miterlimit:4;stroke-opacity:1;stroke-dasharray:none"
       d="m 483.15675,372.49866 c -0.14263,-5.87485 -4.81348,-8.26175 -8.18965,-11.63793"
       id="path4040-2"
       inkscape:connector-curvature="0" />
    <path
       style="fill:none;stroke:#968278;stroke-width:2;stroke-linecap:butt;stroke-linejoin:miter;stroke-miterlimit:4;stroke-opacity:1;stroke-dasharray:none"
       d="m 463.7602,378.96418 c 0.65567,-3.07005 -5.26038,-9.57072 -8.18965,-12.5"
       id="path4042-7"
       inkscape:connector-curvature="0" />
    <path
       style="fill:none;stroke:#968278;stroke-width:2;stroke-linecap:butt;stroke-linejoin:miter;stroke-miterlimit:4;stroke-opacity:1;stroke-dasharray:none"
       d="m 435.74296,366.89522 c 9.95792,11.08609 11.72846,44.37393 -3.87931,48.27587"
       id="path4044-9"
       inkscape:connector-curvature="0" />
    <path
       style="fill:none;stroke:#968278;stroke-width:2;stroke-linecap:butt;stroke-linejoin:miter;stroke-miterlimit:4;stroke-opacity:1;stroke-dasharray:none"
       d="m 462.03607,405.68832 c -0.21013,0.37366 -4.10006,5.17242 -9.05173,5.17242"
       id="path4046-5"
       inkscape:connector-curvature="0" />
    <path
       style="fill:none;stroke:#968278;stroke-width:2;stroke-linecap:butt;stroke-linejoin:miter;stroke-miterlimit:4;stroke-opacity:1;stroke-dasharray:none"
       d="m 486.60503,400.94694 c -1.29881,2.91776 -5.05532,3.17421 -6.46552,3.87931"
       id="path4048-4"
       inkscape:connector-curvature="0" />
    <path
       style="fill:none;stroke:#968278;stroke-width:2;stroke-linecap:butt;stroke-linejoin:miter;stroke-miterlimit:4;stroke-opacity:1;stroke-dasharray:none"
       d="m 512.89813,378.96418 c 5.67654,8.09661 -3.56008,16.40727 -6.89655,17.24138"
       id="path4050-3"
       inkscape:connector-curvature="0" />
    <path
       style="fill:none;stroke:#968278;stroke-width:2;stroke-linecap:butt;stroke-linejoin:miter;stroke-miterlimit:4;stroke-opacity:1;stroke-dasharray:none"
       d="m 534.44986,369.05039 c 1.73104,5.81488 -4.18303,8.91214 -6.46552,9.48276"
       id="path4052-1"
       inkscape:connector-curvature="0" />
    <path
       style="fill:none;stroke:#968278;stroke-width:2;stroke-linecap:butt;stroke-linejoin:miter;stroke-miterlimit:4;stroke-opacity:1;stroke-dasharray:none"
       d="m 552.12227,353.53315 c 0.4535,4.58055 -1.80139,5.62276 -5.17241,6.46551"
       id="path4054-2"
       inkscape:connector-curvature="0" />
    <path
       style="fill:none;stroke:#968278;stroke-width:2;stroke-linecap:butt;stroke-linejoin:miter;stroke-miterlimit:4;stroke-opacity:1;stroke-dasharray:none"
       d="m 564.62227,327.67108 c 0.56408,4.75422 -2.61227,4.75441 -5.17241,6.03448"
       id="path4056-3"
       inkscape:connector-curvature="0" />
    <path
       sodipodi:type="star"
       style="fill:#e6e6e6;fill-opacity:1;stroke:#505050;stroke-width:2.65307522;stroke-linecap:square;stroke-linejoin:miter;stroke-miterlimit:4;stroke-opacity:1;stroke-dasharray:none;stroke-dashoffset:5.83110013"
       id="path4114"
       sodipodi:sides="5"
       sodipodi:cx="270.68964"
       sodipodi:cy="-761.43091"
       sodipodi:r1="68.152542"
       sodipodi:r2="26.098101"
       sodipodi:arg1="-2.8198421"
       sodipodi:arg2="-2.1517295"
       inkscape:flatsided="false"
       inkscape:rounded="0"
       inkscape:randomized="0"
       d="m 206.03446,-782.98263 50.33243,-0.26501 14.84011,-46.33385 15.80561,47.7871 48.65195,-0.20417 -40.56402,29.79906 15.22845,46.20766 -40.87556,-29.37026 -39.24025,28.76207 15.30154,-47.95087 z"
       transform="matrix(1.1528859,0,0,1.1090653,14.17079,1054.2133)" />
    <path
       sodipodi:type="star"
       style="fill:none;stroke:#505050;stroke-width:3.51065254;stroke-linecap:square;stroke-linejoin:miter;stroke-miterlimit:4;stroke-opacity:1;stroke-dasharray:none;stroke-dashoffset:5.83110013"
       id="path4114-7"
       sodipodi:sides="5"
       sodipodi:cx="270.68964"
       sodipodi:cy="-761.43091"
       sodipodi:r1="68.152542"
       sodipodi:r2="26.098101"
       sodipodi:arg1="-2.8198421"
       sodipodi:arg2="-2.1517295"
       inkscape:flatsided="false"
       inkscape:rounded="0"
       inkscape:randomized="0"
       d="m 206.03446,-782.98263 50.33243,-0.26501 14.84011,-46.33385 15.80561,47.7871 48.65195,-0.20417 -40.56402,29.79906 15.22845,46.20766 -40.87556,-29.37026 -39.24025,28.76207 15.30154,-47.95087 z"
       transform="matrix(0.85898479,0,0,0.85012229,93.18211,856.86946)" />
    <path
       style="fill:none;stroke:#646464;stroke-width:2;stroke-linecap:butt;stroke-linejoin:miter;stroke-miterlimit:4;stroke-opacity:1;stroke-dasharray:none"
       d="m 338.4864,191.81302 -12.80107,11.58192 -12.19149,-12.49628"
       id="path3097"
       inkscape:connector-curvature="0"
       sodipodi:nodetypes="cc" />
    <path
       style="fill:none;stroke:#646464;stroke-width:2;stroke-linecap:butt;stroke-linejoin:miter;stroke-miterlimit:4;stroke-opacity:1;stroke-dasharray:none"
       d="m 304.04543,215.58644 21.94469,-11.27714 20.11597,12.1915"
       id="path3867"
       inkscape:connector-curvature="0" />
    <path
       style="fill:none;stroke:#646464;stroke-width:2;stroke-linecap:butt;stroke-linejoin:miter;stroke-miterlimit:4;stroke-opacity:1;stroke-dasharray:none"
       d="m 325.68533,203.39494 -0.60957,27.73566"
       id="path3869"
       inkscape:connector-curvature="0" />
    <path
       style="fill:none;stroke:#646464;stroke-width:1px;stroke-linecap:butt;stroke-linejoin:miter;stroke-opacity:1"
       d="m 269.60445,190.89866 56.08088,12.80107 56.99525,-11.88671"
       id="path3871"
       inkscape:connector-curvature="0" />
    <path
       style="fill:none;stroke:#646464;stroke-width:1px;stroke-linecap:butt;stroke-linejoin:miter;stroke-opacity:1"
       d="m 325.99012,150.36193 0,53.03301"
       id="path3873"
       inkscape:connector-curvature="0" />
    <path
       style="fill:none;stroke:#646464;stroke-width:1px;stroke-linecap:butt;stroke-linejoin:miter;stroke-opacity:1"
       d="m 290.32999,256.73274 35.35534,-53.03301"
       id="path3875"
       inkscape:connector-curvature="0" />
    <path
       style="fill:none;stroke:#646464;stroke-width:1px;stroke-linecap:butt;stroke-linejoin:miter;stroke-opacity:1"
       d="M 359.51673,257.03752 326.29491,203.39494"
       id="path3877"
       inkscape:connector-curvature="0" />
    <path
       style="fill:#dcdcdc;fill-opacity:1;fill-rule:nonzero;stroke:#505050;stroke-width:5;stroke-linecap:butt;stroke-linejoin:miter;stroke-miterlimit:4;stroke-opacity:1;stroke-dasharray:none"
       d="m 329.65371,251.68121 c -35.96491,38.743 -78.50889,12.30115 -78.50889,12.30115 l -31.08832,30.44092 8.22926,14.75925 -0.60957,146.97741 c 0.91093,11.94688 -2.13351,37.51307 28.65002,47.35256 0,0 31.08831,7.37962 44.80374,16.60414 0,0 24.383,17.52659 24.383,26.75112"
       id="path3879"
       inkscape:connector-curvature="0"
       sodipodi:nodetypes="cccccccc" />
    <path
       style="fill:#dcdcdc;fill-opacity:1;fill-rule:nonzero;stroke:#505050;stroke-width:5;stroke-linecap:butt;stroke-linejoin:miter;stroke-miterlimit:4;stroke-opacity:1;stroke-dasharray:none"
       d="m 326.42107,251.88185 c 35.96491,38.74299 73.23507,12.10412 73.23507,12.10412 l 31.08832,30.44092 -8.22926,14.75925 0.60957,146.97741 c -0.91093,11.94688 2.13351,37.51307 -28.65002,47.35256 0,0 -31.08831,7.37962 -44.80374,16.60414 0,0 -24.383,17.5266 -24.383,26.75112"
       id="path3879-4"
       inkscape:connector-curvature="0"
       sodipodi:nodetypes="cccccccc" />
    <path
       style="fill:none;stroke:#505050;stroke-width:4.5;stroke-linecap:butt;stroke-linejoin:miter;stroke-miterlimit:4;stroke-opacity:1;stroke-dasharray:none"
       d="m 328.90378,267.67349 c -35.71348,30.78886 -70.73119,10.13237 -70.73119,10.13237 l -24.86375,22.91894 6.77879,8.7663 0.36709,139.23837 c 0.81784,10.54983 -3.74423,38.61248 23.89375,47.30136 0,0 26.08288,4.38314 38.39683,12.52896 0,0 23.72019,10.90523 23.72019,19.05104"
       id="path3879-48"
       inkscape:connector-curvature="0"
       sodipodi:nodetypes="cccccccc" />
    <path
       style="fill:none;stroke:#505050;stroke-width:4.5;stroke-linecap:butt;stroke-linejoin:miter;stroke-miterlimit:4;stroke-opacity:1;stroke-dasharray:none"
       d="m 327.39581,269.15789 c 35.71348,30.78886 67.22615,7.99886 67.22615,7.99886 l 24.86375,22.91894 -6.77879,8.7663 -0.36709,139.23837 c -0.81784,10.54983 3.74423,38.61248 -23.89375,47.30136 0,0 -26.08288,4.38314 -38.39683,12.52896 0,0 -23.72019,10.90523 -23.72019,19.05104"
       id="path3879-48-8"
       inkscape:connector-curvature="0"
       sodipodi:nodetypes="cccccccc" />
    <path
       style="fill:#505050;fill-opacity:1;stroke:#505050;stroke-width:1px;stroke-linecap:butt;stroke-linejoin:miter;stroke-opacity:1"
       d="m 326.97434,280.22449 c -36.67929,25.62838 -67.85738,5.54597 -67.85738,5.54597 l -16.79293,15.4654 4.86111,6.62803 0,38.88444 82.63889,0"
       id="path4012"
       inkscape:connector-curvature="0"
       sodipodi:nodetypes="cccccc" />
    <path
       style="fill:#505050;fill-opacity:1;stroke:#505050;stroke-width:1px;stroke-linecap:butt;stroke-linejoin:miter;stroke-opacity:1"
       d="m 326.68056,279.74904 c 35.77586,25.45619 67.36762,6.41282 67.36762,6.41282 l 16.37931,15.3615 -4.74138,6.58351 0,38.62319 -80.60345,0"
       id="path4012-2"
       inkscape:connector-curvature="0"
       sodipodi:nodetypes="cccccc" />
    <path
       style="fill:none;stroke:#ffffff;stroke-width:1px;stroke-linecap:butt;stroke-linejoin:miter;stroke-opacity:1"
       d="m 247.48737,296.78178 c 0.60958,1.82873 157.87988,0 157.87988,0"
       id="path4033"
       inkscape:connector-curvature="0"
       sodipodi:nodetypes="cc" />
    <path
       style="fill:none;stroke:#ffffff;stroke-width:1px;stroke-linecap:butt;stroke-linejoin:miter;stroke-opacity:1"
       d="m 242.91557,301.5692 c 0.64488,1.82873 167.02351,0 167.02351,0"
       id="path4033-4"
       inkscape:connector-curvature="0"
       sodipodi:nodetypes="cc" />
    <path
       style="fill:none;stroke:#ffffff;stroke-width:0.99999994px;stroke-linecap:butt;stroke-linejoin:miter;stroke-opacity:1"
       d="m 246.92228,309.36262 c 0.61193,1.82873 158.48946,0 158.48946,0"
       id="path4033-4-5"
       inkscape:connector-curvature="0"
       sodipodi:nodetypes="cc" />
    <path
       style="fill:none;stroke:#ffffff;stroke-width:0.99999994px;stroke-linecap:butt;stroke-linejoin:miter;stroke-opacity:1"
       d="m 247.79215,316.199 c 0.61193,1.82873 158.48946,0 158.48946,0"
       id="path4033-4-5-5"
       inkscape:connector-curvature="0"
       sodipodi:nodetypes="cc" />
    <path
       style="fill:none;stroke:#ffffff;stroke-width:0.99999994px;stroke-linecap:butt;stroke-linejoin:miter;stroke-opacity:1"
       d="m 247.48736,323.51389 c 0.61193,1.82873 158.48946,0 158.48946,0"
       id="path4033-4-5-5-1"
       inkscape:connector-curvature="0"
       sodipodi:nodetypes="cc" />
    <path
       style="fill:none;stroke:#ffffff;stroke-width:0.99999994px;stroke-linecap:butt;stroke-linejoin:miter;stroke-opacity:1"
       d="m 247.18257,330.52401 c 0.61193,1.82873 158.48946,0 158.48946,0"
       id="path4033-4-5-5-1-7"
       inkscape:connector-curvature="0"
       sodipodi:nodetypes="cc" />
    <path
       style="fill:none;stroke:#ffffff;stroke-width:0.99999994px;stroke-linecap:butt;stroke-linejoin:miter;stroke-opacity:1"
       d="m 247.18258,339.05805 c 0.61193,1.82873 158.48946,0 158.48946,0"
       id="path4033-4-5-5-1-7-1"
       inkscape:connector-curvature="0"
       sodipodi:nodetypes="cc" />
    <path
       style="fill:#505050;fill-opacity:1;stroke:#505050;stroke-width:1px;stroke-linecap:butt;stroke-linejoin:miter;stroke-opacity:1"
       d="m 326.65889,512.19058 c 0.43103,-5.17242 -25.43104,-16.1638 -50,-20.90518 -24.56897,-4.74138 -27.58621,-21.55172 -27.58621,-21.55172 0,0 1.07759,-112.06897 -0.64655,-112.93104 l 78.01724,0.43104"
       id="path4143"
       inkscape:connector-curvature="0"
       sodipodi:nodetypes="ccscc" />
    <path
       style="fill:#505050;fill-opacity:1;stroke:#505050;stroke-width:0.99999994px;stroke-linecap:butt;stroke-linejoin:miter;stroke-opacity:1"
       d="m 326.58678,512.03819 c -0.43579,-5.17242 24.16537,-16.01141 49.00581,-20.75279 24.84045,-4.74138 27.89103,-21.55172 27.89103,-21.55172 0,0 -1.08949,-112.06897 0.6537,-112.93104 l -78.87931,0.43104"
       id="path4143-1"
       inkscape:connector-curvature="0"
       sodipodi:nodetypes="ccscc" />
    <path
       style="fill:#dcdcdc;fill-opacity:1;stroke:#e6e6e6;stroke-width:0.99999994px;stroke-linecap:butt;stroke-linejoin:miter;stroke-opacity:1"
       d="m 326.49119,509.09518 c -7.63246,-6.9487 -20.84718,-15.91488 -42.65957,-19.87197 -31.08994,-4.32288 -30.28,-19.21841 -30.28,-19.21841 0,0 1.01445,-102.17712 -0.60866,-102.9631 l 73.44542,0.39299"
       id="path4143-5"
       inkscape:connector-curvature="0"
       sodipodi:nodetypes="ccccc" />
    <path
       style="fill:#dcdcdc;fill-opacity:1;stroke:#e6e6e6;stroke-width:0.99999994px;stroke-linecap:butt;stroke-linejoin:miter;stroke-opacity:1"
       d="m 326.30807,509.10441 c 7.63246,-6.9487 20.14834,-15.96493 41.96073,-19.92202 31.08994,-4.32288 30.28,-19.21841 30.28,-19.21841 0,0 -1.01445,-102.17712 0.60866,-102.9631 l -73.44542,0.39299"
       id="path4143-5-2"
       inkscape:connector-curvature="0"
       sodipodi:nodetypes="ccccc" />
    <path
       style="fill:#505050;fill-opacity:1;stroke:#505050;stroke-width:1px;stroke-linecap:butt;stroke-linejoin:miter;stroke-opacity:1"
       d="m 388.01714,363.4534 0.78701,120.47243 c -4.2737,1.12093 -7.61395,2.98623 -7.78031,3.0135 L 379.445,363.4534 z"
       id="path4210"
       inkscape:connector-curvature="0"
       sodipodi:nodetypes="ccccc" />
    <path
       style="fill:#505050;fill-opacity:1;stroke:#505050;stroke-width:1px;stroke-linecap:butt;stroke-linejoin:miter;stroke-opacity:1"
       d="m 263.81188,363.03418 -0.60958,121.28034 c 6.4918,1.03249 3.84297,1.70152 8.37082,2.25919 l 1.38238,-123.53953 z"
       id="path4210-7"
       inkscape:connector-curvature="0"
       sodipodi:nodetypes="ccccc" />
    <path
       style="fill:#505050;fill-opacity:1;stroke:#505050;stroke-width:0.99999994px;stroke-linecap:butt;stroke-linejoin:miter;stroke-opacity:1"
       d="m 289.18667,362.9291 -0.53801,127.98898 c 7.06838,1.57551 7.75105,2.95523 7.69245,2.72606 l 0.91555,-130.71504 z"
       id="path4210-7-6"
       inkscape:connector-curvature="0"
       sodipodi:nodetypes="ccccc" />
    <path
       style="fill:#505050;fill-opacity:1;stroke:#505050;stroke-width:0.99999988px;stroke-linecap:butt;stroke-linejoin:miter;stroke-opacity:1"
       d="m 362.82833,363.02125 0.49991,127.52966 c -6.56784,1.56982 -7.69516,2.83172 -7.64071,2.60336 l -0.35772,-130.13302 z"
       id="path4210-7-6-1"
       inkscape:connector-curvature="0"
       sodipodi:nodetypes="ccccc" />
    <path
       style="fill:#505050;fill-opacity:1;stroke:#505050;stroke-width:0.99999994px;stroke-linecap:butt;stroke-linejoin:miter;stroke-opacity:1"
       d="m 313.18331,363.1694 -0.37133,138.18188 c 6.88068,1.70484 7.39283,3.51163 7.33578,3.26365 L 321.039,363.1694 z"
       id="path4210-7-6-2"
       inkscape:connector-curvature="0"
       sodipodi:nodetypes="ccccc" />
    <path
       style="fill:#505050;fill-opacity:1;stroke:#505050;stroke-width:0.99999994px;stroke-linecap:butt;stroke-linejoin:miter;stroke-opacity:1"
       d="m 338.68822,363.01529 0.37133,139.04481 c -6.88068,1.71548 -7.39283,3.53356 -7.33578,3.28402 l -0.89124,-142.32883 z"
       id="path4210-7-6-2-3"
       inkscape:connector-curvature="0"
       sodipodi:nodetypes="ccccc" />
    <path
       style="fill:#505050;fill-opacity:1;stroke:#505050;stroke-width:0.99999994px;stroke-linecap:butt;stroke-linejoin:miter;stroke-opacity:1"
       d="m 306.91244,363.01529 -0.2343,133.96627 c 2.92958,1.64415 3.45243,1.90301 3.42814,1.66386 l 0.15087,-135.63013 z"
       id="path4210-7-6-2-2"
       inkscape:connector-curvature="0"
       sodipodi:nodetypes="ccccc" />
    <path
       style="fill:#505050;fill-opacity:1;stroke:#505050;stroke-width:0.99999994px;stroke-linecap:butt;stroke-linejoin:miter;stroke-opacity:1"
       d="m 345.1115,362.83185 0.2343,133.96627 c -2.92958,1.64415 -3.45243,1.90301 -3.42814,1.66386 l -0.15087,-135.63013 z"
       id="path4210-7-6-2-2-2"
       inkscape:connector-curvature="0"
       sodipodi:nodetypes="ccccc" />
    <path
       style="fill:#505050;fill-opacity:1;stroke:#505050;stroke-width:1px;stroke-linecap:butt;stroke-linejoin:miter;stroke-opacity:1"
       d="m 370.11042,363.06613 0.30414,125.9495 c -3.80277,1.54576 -4.48146,1.78914 -4.44993,1.56429 l -0.19584,-127.51379 z"
       id="path4210-7-6-2-2-2-1"
       inkscape:connector-curvature="0"
       sodipodi:nodetypes="ccccc" />
    <path
       style="fill:#505050;fill-opacity:1;stroke:#505050;stroke-width:1px;stroke-linecap:butt;stroke-linejoin:miter;stroke-opacity:1"
       d="m 394.40586,363.45656 0.2393,117.08252 c -2.99196,1.43695 -3.52594,1.66319 -3.50113,1.45418 l -0.15409,-118.5367 z"
       id="path4210-7-6-2-2-2-1-6"
       inkscape:connector-curvature="0"
       sodipodi:nodetypes="ccccc" />
    <path
       style="fill:#505050;fill-opacity:1;stroke:#505050;stroke-width:1px;stroke-linecap:butt;stroke-linejoin:miter;stroke-opacity:1"
       d="m 257.23708,362.90991 -0.2393,117.30058 c 2.99196,1.43961 3.52594,1.66628 3.50113,1.45687 L 260.653,362.90991 z"
       id="path4210-7-6-2-2-2-1-6-8"
       inkscape:connector-curvature="0"
       sodipodi:nodetypes="ccccc" />
    <path
       style="fill:#505050;fill-opacity:1;stroke:#505050;stroke-width:1px;stroke-linecap:butt;stroke-linejoin:miter;stroke-opacity:1"
       d="m 281.47052,363.21311 -0.30414,125.9495 c 3.80277,1.54576 4.48146,1.78914 4.44993,1.56429 l 0.19584,-127.51379 z"
       id="path4210-7-6-2-2-2-1-5"
       inkscape:connector-curvature="0"
       sodipodi:nodetypes="ccccc" />
    <path
       sodipodi:type="star"
       style="fill:#dcdcdc;fill-opacity:1;fill-rule:nonzero;stroke:#505050;stroke-width:17.16838074;stroke-linecap:square;stroke-linejoin:miter;stroke-miterlimit:4;stroke-opacity:1;stroke-dasharray:none;stroke-dashoffset:5.83110013"
       id="path4431"
       sodipodi:sides="4"
       sodipodi:cx="235.99138"
       sodipodi:cy="228.22424"
       sodipodi:r1="0.48775867"
       sodipodi:r2="3.3391292"
       sodipodi:arg1="1.4375138"
       sodipodi:arg2="2.222912"
       inkscape:flatsided="true"
       inkscape:rounded="0"
       inkscape:randomized="0"
       d="m 236.0562,228.70768 -0.54825,-0.41862 0.41861,-0.54825 0.54825,0.41862 z"
       inkscape:transform-center-x="-0.34355206"
       inkscape:transform-center-y="-0.26137583"
       transform="matrix(-0.45401106,0.24642314,-0.0861076,0.19805782,451.21485,153.97674)" />
  </g>
</svg>
