<?xml version="1.0" encoding="utf-8"?>
<!-- Generator: Adobe Illustrator 13.0.0, SVG Export Plug-In . SVG Version: 6.00 Build 14948)  -->
<!DOCTYPE svg PUBLIC "-//W3C//DTD SVG 1.1//EN" "http://www.w3.org/Graphics/SVG/1.1/DTD/svg11.dtd">
<svg version="1.1" id="Layer_1" xmlns="http://www.w3.org/2000/svg" xmlns:xlink="http://www.w3.org/1999/xlink" x="0px" y="0px"
	 width="345.024px" height="110.187px" viewBox="0 0 345.024 110.187" enable-background="new 0 0 345.024 110.187"
	 xml:space="preserve">
<g>
	<g>
		<g>
			<g>
				<path fill="#FFFFFF" stroke="#000000" stroke-width="1.4784" d="M272.411,62.862c8.851,0.715,11.731-4.526,11.731-4.526
					l0.742-0.429c8.28,0.742,14.338,0.806,14.338,0.806c13.572,0,16.551-8.641,16.551-8.641l0.61-0.092
					c18.265-2.81,17.486-14.234,17.486-14.234l0.805-0.487c7.964-5.191,6.358-12.331,6.358-12.331l0.495-0.635
					c5.809-5.727,0.636-10.675,0.636-10.675l0.191-0.492c4.737-12.608-8.862-8.933-8.862-8.933
					c-28.231,5.375-51.272,3.393-51.272,3.393c2.897-8.715-10.556-3.016-10.556-3.016c-11.31,3.77-31.824,0.362-31.824,0.362
					c-22.221-1.175-23.973,3.031-23.973,3.031c-7.163,4.901-2.639,16.211-2.639,16.211c6.032,10.179,1.508,15.08,1.508,15.08
					c-7.163,4.524-9.425-2.262-9.425-2.262v-4.147l2.262-4.901l-10.556-10.179c-12.064,8.671-23.751-2.639-23.751-2.639
					l-0.848-0.754l-0.66,0.754c0,0-11.688,11.31-23.751,2.639l-10.556,10.179l2.262,4.901V36.5v-0.377c0,0-2.262,6.786-9.424,2.262
					c0,0-4.524-4.901,1.508-15.08c0,0,4.524-11.31-2.639-16.211c0,0-3.785-3.651-25.452-2.292c0,0-19.035,2.669-30.345-1.101
					c0,0-13.665-4.792-10.459,2.674l-0.003,0.578l0.003-0.578c-0.033,0.112-0.066,0.226-0.097,0.342c0,0-24.15,0.133-51.273-3.393
					c0,0-13.949-3.771-8.671,9.425c0,0-5.286,5.056,0.83,10.862l0.301,0.448c0,0-1.654,7.351,6.713,12.558l0.45,0.261
					c0,0-0.801,11.753,18.281,14.349l-0.185-0.022c0,0,1.131,7.163,14.703,7.163c0,0,6.242-0.066,14.713-0.84l0.367,0.463
					c0,0,5.197,7.386,14.892,5.847l-0.566,0.186c0,0,3.614,3.241,10.558,3.057l-0.002,0.713c0,0,2.927,6.006,9.074,4.436
					L92.587,74.2c0,0,3.77,5.655,7.163,1.508l-0.116,0.172c-0.452,8.468,6.902,6.99,6.902,6.99l1.136-0.304
					c1.845,4.609,6.404,3.697,6.404,3.697l0.507-0.177c2.503,5.467,8.542,2.816,8.542,2.816l0.354-0.202
					c3.377,4.069,8.317,2.464,8.317,2.464l1.001,0.49c3.884,2.979,8.424,1.395,8.424,1.395l2.359-0.849
					c1.639,1.681,3.916,3.077,7.066,3.865c0,0,14.326,1.885,21.866,12.818c7.54-10.934,21.866-12.818,21.866-12.818
					c3.762-0.94,6.278-2.75,7.951-4.874l1.475,0.727c0,0,4.943,1.724,8.926-1.81l0.499-0.075c0,0,4.769,1.549,8.138-2.256
					l0.533-0.006c0,0,6.038,2.651,8.541-2.816c0,0,3.257,1.101,6.029-3.149c0,0,8.131,1.293,8.5-6.283c0,0,1.479,2.033,4.99,0.185
					c0,0,1.478-1.109,1.848-4.251c0,0,4.99,1.109,8.686-5.174c0,0,5.544,1.109,11.273-2.957L272.411,62.862z"/>
			</g>
			<path fill="none" stroke="#6D6F71" stroke-width="0.9609" d="M205.052,44.292c0,0,7.762,5.914,16.264-1.848
				c0,0,6.652-9.24,0.37-17.372c0,0-0.739-10.349,5.914-11.828c0,0,2.587-4.066,16.632,1.108"/>
			<line fill="none" stroke="#000000" stroke-width="2.5872" x1="107.845" y1="59.815" x2="108.584" y2="58.151"/>
			<line fill="none" stroke="#000000" stroke-width="2.5872" x1="237.763" y1="59.26" x2="236.47" y2="57.597"/>
			<line fill="none" stroke="#000000" stroke-width="2.5872" x1="105.997" y1="58.336" x2="107.476" y2="57.228"/>
			<g>
				<path fill="none" stroke="#77787B" stroke-width="0.5913" d="M234.807,36.529c0,0,11.827,0.555,10.533,9.24
					c0,0-0.185,1.664-2.217,1.848"/>
				<path fill="none" stroke="#77787B" stroke-width="0.5913" d="M228.893,40.78c0,0,12.937,2.217,10.349,11.273
					c0,0-1.479,1.848-2.402,1.479"/>
				<path fill="none" stroke="#77787B" stroke-width="0.5913" d="M224.642,44.846c0,0,9.425,3.326,7.208,13.121
					c0,0-0.924,1.848-2.218,1.293"/>
				<path fill="none" stroke="#77787B" stroke-width="0.5913" d="M219.098,47.802c0,0,7.577,7.208,4.25,14.045
					c0,0-0.924,1.109-2.218,0.739"/>
				<path fill="none" stroke="#77787B" stroke-width="0.5913" d="M212.629,49.466c0,0,8.132,7.762,2.033,14.415
					c0,0-1.293,1.108-2.587,0.37"/>
				<path fill="none" stroke="#77787B" stroke-width="0.5913" d="M206.347,49.835c0,0,4.25,9.055,0.554,15.893
					c0,0-0.739,1.109-2.218,0.37"/>
				<path fill="none" stroke="#77787B" stroke-width="0.5913" d="M236.47,61.848c0,0,6.468,9.24,3.142,17.187
					c0,0-1.848,0.924-2.957,0.37"/>
				<path fill="none" stroke="#77787B" stroke-width="0.5913" d="M231.295,63.881c0,0,3.881,12.197,1.664,17.556
					c0,0-0.924,2.772-2.957,1.479"/>
				<path fill="none" stroke="#77787B" stroke-width="0.5913" d="M225.936,67.022c0,0,3.881,12.751-0.924,17.741
					c0,0-1.479,1.848-3.326,0.554"/>
				<path fill="none" stroke="#77787B" stroke-width="0.5913" d="M219.837,68.686c0,0,2.402,13.121-3.327,18.111
					c0,0-2.033,1.663-3.142,0.739"/>
				<path fill="none" stroke="#77787B" stroke-width="0.5913" d="M213,70.534c0,0,1.848,13.86-3.327,17.002
					c0,0-1.664,1.293-2.403,0.185"/>
				<path fill="none" stroke="#77787B" stroke-width="0.5913" d="M207.085,72.936c0,0,1.109,4.99-0.37,10.903
					c0,0-0.554,2.772-2.587,2.033"/>
				<path fill="none" stroke="#77787B" stroke-width="0.5913" d="M239.796,31.355c0,0,8.686-1.293,9.24,3.511
					c0,0,1.479,2.403-1.663,4.066"/>
			</g>
			<g>
				<path fill="none" stroke="#77787B" stroke-width="0.5913" d="M109.878,37.269c0,0-11.828,0.554-10.534,9.24
					c0,0,0.185,1.663,2.217,1.848"/>
				<path fill="none" stroke="#77787B" stroke-width="0.5913" d="M115.792,41.519c0,0-12.936,2.218-10.349,11.273
					c0,0,1.479,1.848,2.402,1.479"/>
				<path fill="none" stroke="#77787B" stroke-width="0.5913" d="M120.042,45.585c0,0-9.425,3.327-7.207,13.121
					c0,0,0.924,1.848,2.217,1.293"/>
				<path fill="none" stroke="#77787B" stroke-width="0.5913" d="M125.586,48.542c0,0-7.577,7.208-4.25,14.045
					c0,0,0.924,1.109,2.218,0.739"/>
				<path fill="none" stroke="#77787B" stroke-width="0.5913" d="M132.055,50.205c0,0-8.131,7.762-2.033,14.415
					c0,0,1.293,1.109,2.587,0.37"/>
				<path fill="none" stroke="#77787B" stroke-width="0.5913" d="M138.338,50.575c0,0-4.25,9.055-0.554,15.893
					c0,0,0.739,1.109,2.218,0.37"/>
				<path fill="none" stroke="#77787B" stroke-width="0.5913" d="M108.215,62.587c0,0-6.468,9.24-3.142,17.187
					c0,0,1.848,0.924,2.957,0.37"/>
				<path fill="none" stroke="#77787B" stroke-width="0.5913" d="M113.39,64.62c0,0-3.881,12.197-1.664,17.557
					c0,0,0.924,2.772,2.957,1.479"/>
				<path fill="none" stroke="#77787B" stroke-width="0.5913" d="M118.749,67.761c0,0-3.881,12.752,0.924,17.742
					c0,0,1.479,1.848,3.326,0.554"/>
				<path fill="none" stroke="#77787B" stroke-width="0.5913" d="M124.847,69.425c0,0-2.402,13.121,3.326,18.111
					c0,0,2.033,1.663,3.142,0.739"/>
				<path fill="none" stroke="#77787B" stroke-width="0.5913" d="M131.685,71.273c0,0-1.848,13.86,3.326,17.002
					c0,0,1.664,1.293,2.403,0.185"/>
				<path fill="none" stroke="#77787B" stroke-width="0.5913" d="M137.599,73.675c0,0-1.109,4.99,0.369,10.903
					c0,0,0.554,2.772,2.587,2.033"/>
				<path fill="none" stroke="#77787B" stroke-width="0.5913" d="M97.311,39.671c-3.142-1.664-1.663-4.066-1.663-4.066
					c0.555-4.805,9.24-3.511,9.24-3.511"/>
			</g>
			<g>
				<path fill="none" stroke="#6D6F71" stroke-width="2.0328" d="M199.139,92.34c0,0,14.045,0.74,9.979-23.655"/>
				<path fill="none" stroke="#6D6F71" stroke-width="2.0328" d="M145.915,93.45c0,0-14.045,0.739-9.979-23.655"/>
			</g>
			<path fill="none" stroke="#6D6F71" stroke-width="0.9609" d="M140.001,45.4c0,0-7.762,5.914-16.263-1.848
				c0,0-6.653-9.24-0.37-17.372c0,0,1.109-9.98-5.544-11.458c0,0-2.587-4.066-16.632,1.108"/>
			<path d="M146.654,43.552v-8.871c0,0,0.555-4.989-1.848-5.729l5.544-5.267c0,0,11.458,6.006,22.546-2.68
				c11.088,9.056,22.084,2.31,22.084,2.31l5.729,5.452c-2.495,0.646-1.849,5.914-1.849,5.914v8.871H146.654z"/>
			<line fill="none" stroke="#FFFFFF" stroke-width="0.3696" x1="145.083" y1="28.768" x2="200.71" y2="28.768"/>
			<line fill="none" stroke="#FFFFFF" stroke-width="0.3696" x1="147.024" y1="27.104" x2="198.769" y2="27.104"/>
			<g>
				<line fill="none" stroke="#FFFFFF" stroke-width="0.3696" x1="146.47" y1="31.54" x2="199.324" y2="31.54"/>
			</g>
			<g>
				<line fill="none" stroke="#FFFFFF" stroke-width="0.3696" x1="146.377" y1="33.665" x2="199.231" y2="33.665"/>
			</g>
			<g>
				<line fill="none" stroke="#FFFFFF" stroke-width="0.3696" x1="146.192" y1="36.067" x2="199.047" y2="36.067"/>
			</g>
			<g>
				<line fill="none" stroke="#FFFFFF" stroke-width="0.3696" x1="146.192" y1="38.285" x2="199.047" y2="38.285"/>
			</g>
			<g>
				<line fill="none" stroke="#FFFFFF" stroke-width="0.3696" x1="146.377" y1="41.057" x2="199.231" y2="41.057"/>
			</g>
			<g>
				<path d="M147.385,48.912v33.055c0,0-1.157,6.529,11.583,8.8c0,0,9.928,2.412,13.733,6.528
					c3.806-4.116,13.734-6.528,13.734-6.528c12.74-2.271,11.582-8.8,11.582-8.8V48.912H147.385z"/>
			</g>
			<rect x="147.394" y="46.139" width="50.637" height="2.772"/>
			<path fill="none" stroke="#000000" stroke-width="1.4784" d="M172.385,18.372c-10.762,9.102-22.774,2.449-22.774,2.449
				l-7.762,7.392c0,0,2.772,2.772,2.402,3.881v6.283v43.983c0,0-1.293,8.501,12.937,11.458c0,0,11.088,3.142,15.338,8.501
				c4.25-5.359,15.339-8.501,15.339-8.501c14.23-2.957,12.936-11.458,12.936-11.458V38.377v-6.283
				c-0.37-1.109,2.403-3.881,2.403-3.881l-7.762-7.392c0,0-12.012,6.468-22.75-2.426L172.385,18.372z"/>
			<g>
				<g>
					<polygon fill="#FFFFFF" points="171.048,49.651 171.048,94.743 172.712,96.037 174.375,94.743 174.005,49.651 					"/>
					<polygon fill="#FFFFFF" points="176.962,49.835 177.702,49.835 177.886,92.525 177.147,93.45 					"/>
				</g>
				<g>
					<polygon fill="#FFFFFF" points="178.995,49.651 179.272,92.063 180.566,91.324 182.322,90.955 181.952,49.651 					"/>
				</g>
				<polygon fill="#FFFFFF" points="184.909,49.835 185.648,49.835 185.833,90.123 185.094,90.493 				"/>
				<polygon fill="#FFFFFF" points="187.311,49.651 187.496,89.753 188.975,89.384 190.545,89.106 190.268,49.651 				"/>
				<polygon fill="#FFFFFF" points="193.225,49.835 193.964,49.835 194.057,86.796 193.318,87.72 				"/>
				<polygon fill="#FFFFFF" points="168.461,49.835 167.722,49.835 167.537,92.525 168.277,93.45 				"/>
				<g>
					<polygon fill="#FFFFFF" points="166.428,49.651 166.151,92.063 164.857,91.324 163.102,90.955 163.472,49.651 					"/>
				</g>
				<polygon fill="#FFFFFF" points="160.515,49.835 159.775,49.835 159.591,90.123 160.33,90.493 				"/>
				<polygon fill="#FFFFFF" points="158.112,49.651 157.927,89.753 156.449,89.384 154.878,89.106 155.155,49.651 				"/>
				<polygon fill="#FFFFFF" points="152.198,49.835 151.459,49.835 151.367,86.796 152.106,87.72 				"/>
				<g>
					<path fill="#FFFFFF" d="M149.796,50.021l-1.109,0.185v32.341c0,0,0.555,2.218,1.479,2.218L149.796,50.021z"/>
				</g>
				<g>
					<path fill="#FFFFFF" d="M195.627,49.835l1.109,0.185v32.34c0,0-0.554,2.218-1.478,2.218L195.627,49.835z"/>
				</g>
			</g>
			<g>
				<g>
					<path fill="#FFFFFF" stroke="#FFFFFF" stroke-width="1.4784" d="M69.591,17.31c-42.136,2.217-54.148-5.175-54.148-5.175
						s17.187,6.468,52.669,3.512L69.591,17.31z"/>
				</g>
				<path fill="#FFFFFF" stroke="#FFFFFF" stroke-width="1.4784" d="M81.188,27.425c-45.791,6.602-61.934-1.822-61.934-1.822
					s21.902,6.625,60.467,0.448L81.188,27.425z"/>
				<path fill="#FFFFFF" stroke="#FFFFFF" stroke-width="1.4784" d="M88.771,34.273c-47.853,8.477-65.356,1.29-65.356,1.29
					s23.464,5.204,63.73-2.519L88.771,34.273z"/>
				<path fill="#FFFFFF" stroke="#FFFFFF" stroke-width="1.4784" d="M92.162,40.771c-47.205,11.547-65.136,5.505-65.136,5.505
					s23.75,3.679,63.435-6.627L92.162,40.771z"/>
				<path fill="#FFFFFF" stroke="#FFFFFF" stroke-width="1.4784" d="M95.09,47.773c-40.78,12.764-56.27,6.085-56.27,6.085
					s20.519,4.066,54.8-7.324L95.09,47.773z"/>
				<path fill="#FFFFFF" stroke="#FFFFFF" stroke-width="1.4784" d="M99.019,50.408c-18.884,12.324-27.024,9.403-27.024,9.403
					s10.381,0.716,26.201-10.08L99.019,50.408z"/>
				<path fill="#FFFFFF" stroke="#FFFFFF" stroke-width="1.4784" d="M102.207,55.784c-12.589,10.123-18.016,7.724-18.016,7.724
					s6.921,0.588,17.467-8.279L102.207,55.784z"/>
				<path fill="#FFFFFF" stroke="#FFFFFF" stroke-width="1.4784" d="M105.74,60.756c-9.821,10.158-14.322,8.03-14.322,8.03
					s5.642,0.336,13.854-8.546L105.74,60.756z"/>
			</g>
			<g>
				<path fill="none" stroke="#6D6F71" stroke-width="1.4784" d="M13.225,10.287c0,0,11.828,7.392,53.963,5.175"/>
			</g>
			<g>
				<g>
					<path fill="#FFFFFF" stroke="#FFFFFF" stroke-width="1.4784" d="M274.354,16.201c42.136,2.218,54.148-5.174,54.148-5.174
						s-17.187,6.468-52.67,3.511L274.354,16.201z"/>
				</g>
				<path fill="#FFFFFF" stroke="#FFFFFF" stroke-width="1.4784" d="M262.757,26.316c45.79,6.603,61.933-1.821,61.933-1.821
					s-21.902,6.624-60.467,0.447L262.757,26.316z"/>
				<path fill="#FFFFFF" stroke="#FFFFFF" stroke-width="1.4784" d="M255.173,33.164c47.853,8.477,65.356,1.29,65.356,1.29
					s-23.464,5.204-63.73-2.519L255.173,33.164z"/>
				<path fill="#FFFFFF" stroke="#FFFFFF" stroke-width="1.4784" d="M251.783,39.663c47.206,11.548,65.136,5.505,65.136,5.505
					s-23.751,3.679-63.435-6.627L251.783,39.663z"/>
				<path fill="#FFFFFF" stroke="#FFFFFF" stroke-width="1.4784" d="M248.854,46.665c40.78,12.764,56.27,6.085,56.27,6.085
					s-20.518,4.066-54.8-7.324L248.854,46.665z"/>
				<path fill="#FFFFFF" stroke="#FFFFFF" stroke-width="1.4784" d="M244.926,49.299c18.883,12.324,27.024,9.403,27.024,9.403
					s-10.382,0.716-26.202-10.079L244.926,49.299z"/>
				<path fill="#FFFFFF" stroke="#FFFFFF" stroke-width="1.4784" d="M241.738,54.675c12.589,10.123,18.016,7.724,18.016,7.724
					s-6.921,0.588-17.467-8.28L241.738,54.675z"/>
				<path fill="#FFFFFF" stroke="#FFFFFF" stroke-width="1.4784" d="M238.205,59.648c9.822,10.157,14.322,8.029,14.322,8.029
					s-5.642,0.336-13.854-8.546L238.205,59.648z"/>
			</g>
			<g>
				<path fill="none" stroke="#6D6F71" stroke-width="1.4784" d="M330.72,9.178c0,0-11.827,7.392-53.963,5.174"/>
			</g>
			<g>
				<path fill="none" stroke="#808285" stroke-width="2.5872" d="M140.371,36.16c0,0-2.218,6.653-9.241,2.218
					c0,0-4.436-4.805,1.479-14.784c0,0,4.436-11.088-2.587-15.894c0,0-5.174-3.696-24.948-2.218c0,0-18.666,2.587-29.753-1.109
					c0,0-14.629-4.64-10.254,2.622"/>
				<path fill="none" stroke="#808285" stroke-width="2.0328" d="M338.852,12.135c0,0,8.5,8.132-8.871,15.524
					c0,0-26.981,7.392-77.249,1.478"/>
				<path fill="none" stroke="#808285" stroke-width="2.0328" d="M337.742,23.224c0,0,3.327,14.784-23.655,17.002
					c0,0-20.328,2.218-60.616-4.066"/>
				<path fill="none" stroke="#808285" stroke-width="2.5872" d="M330.72,35.79c0,0,1.109,16.263-30.677,14.415
					c0,0-26.981-2.218-50.637-9.61"/>
				<path fill="none" stroke="#808285" stroke-width="2.0328" d="M312.979,49.835c0,0-1.109,7.022-14.415,7.022
					c0,0-34.743-0.37-51.006-9.61"/>
				<path fill="none" stroke="#808285" stroke-width="2.0328" d="M283.779,56.488c0,0-7.022,9.979-19.958,4.066
					c0,0-12.937-5.544-19.959-11.458"/>
				<path fill="none" stroke="#808285" stroke-width="2.0328" d="M269.734,62.402c0,0-10.718,9.609-30.677-5.544"/>
				<path fill="none" stroke="#808285" stroke-width="2.0328" d="M259.385,66.098c0,0-7.022,14.415-22.176-7.762"/>
				<path fill="none" stroke="#808285" stroke-width="2.5872" d="M244.693,74.507c5.174,2.957,6.191-2.125,6.191-2.125v-1.478"/>
				<path fill="none" stroke="#808285" stroke-width="2.0328" d="M203.205,90.862c0,0,15.894,5.544,13.306-24.025"/>
				<path fill="none" stroke="#808285" stroke-width="2.0328" d="M212.445,89.014c0,0,14.784,4.805,10.349-23.655"/>
				<path fill="none" stroke="#808285" stroke-width="2.0328" d="M220.946,86.796c0,0,15.154,6.653,7.022-23.285"/>
				<path fill="none" stroke="#808285" stroke-width="2.0328" d="M229.817,84.209c0,0,12.936,2.587,3.696-23.286"/>
				<path fill="none" stroke="#808285" stroke-width="2.0328" d="M236.192,80.882c0,0,13.676,1.941,6.191-15.8"/>
				<path fill="none" stroke="#808285" stroke-width="2.5872" d="M93.708,72.474c0,0,2.125,6.191,7.485,2.495"/>
				<path fill="none" stroke="#808285" stroke-width="2.0328" d="M6.203,13.244c0,0-8.501,8.131,8.871,15.523
					c0,0,26.981,7.392,77.249,1.479"/>
				<path fill="none" stroke="#808285" stroke-width="2.0328" d="M7.311,24.332c0,0-3.326,14.785,23.655,17.002
					c0,0,20.329,2.218,60.616-4.065"/>
				<path fill="none" stroke="#808285" stroke-width="2.0328" d="M14.334,36.899c0,0-1.109,16.263,30.677,14.415
					c0,0,26.982-2.218,50.637-9.61"/>
				<path fill="none" stroke="#808285" stroke-width="2.0328" d="M32.075,50.944c0,0,1.109,7.022,14.415,7.022
					c0,0,34.744-0.37,51.007-9.61"/>
				<path fill="none" stroke="#808285" stroke-width="2.0328" d="M61.275,57.597c0,0,7.022,9.979,19.958,4.066
					c0,0,12.936-5.544,19.959-11.458"/>
				<path fill="none" stroke="#808285" stroke-width="2.0328" d="M75.32,63.511c0,0,10.718,9.609,30.677-5.544"/>
				<path fill="none" stroke="#808285" stroke-width="2.0328" d="M85.668,67.207c0,0,7.023,14.415,22.177-7.762"/>
				<path fill="none" stroke="#808285" stroke-width="2.0328" d="M141.849,91.971c0,0-15.893,5.544-13.306-24.024"/>
				<path fill="none" stroke="#808285" stroke-width="2.0328" d="M132.609,90.123c0,0-14.785,4.805-10.349-23.655"/>
				<path fill="none" stroke="#808285" stroke-width="2.0328" d="M124.108,87.905c0,0-15.154,6.653-7.022-23.286"/>
				<path fill="none" stroke="#808285" stroke-width="2.0328" d="M115.237,85.318c0,0-12.936,2.587-3.696-23.285"/>
				<path fill="none" stroke="#808285" stroke-width="2.0328" d="M107.845,81.991c0,0-11.458,1.109-5.175-15.154"/>
				<path fill="none" stroke="#6D6F71" stroke-width="1.1088" d="M65.71,5.852c0,0-2.218-4.62,7.946-0.924
					c0,0,7.392,25.873,35.113,19.404l0.924-1.293c-1.663-1.848-0.185-3.881-0.185-3.881c4.805-3.142,5.359,2.402,5.359,2.402
					c-2.771,11.088-18.48,7.947-18.48,7.947C70.181,25.715,65.553,9.651,65.063,7.562l0.003-0.567
					c-0.032,0.11-0.064,0.222-0.095,0.336c0,0-26.981,0.369-50.267-3.327c0,0-13.675-3.696-8.501,9.241
					c0,0,15.523,17.372,68.008,8.501"/>
				<g>
					<path fill="none" stroke="#808285" stroke-width="1.6632" stroke-miterlimit="8" d="M171.788,13.614
						c0,0-11.458,11.088-23.285,2.587l-10.349,9.98l2.218,4.805v46.201c0,0-2.587,14.415,10.718,17.741
						c0,0,14.045,1.848,21.438,12.567c7.392-10.719,21.438-12.567,21.438-12.567c13.306-3.326,10.718-17.741,10.718-17.741V30.985
						l2.218-4.805l-10.349-9.98c-11.828,8.501-23.286-2.587-23.286-2.587l-0.832-0.739L171.788,13.614z"/>
				</g>
				<path fill="none" stroke="#808285" stroke-width="2.0328" d="M204.683,35.051c0,0,2.218,6.653,9.241,2.218
					c0,0,4.436-4.805-1.479-14.785c0,0-4.436-11.088,2.587-15.893c0,0,2.403-4.805,23.47-2.957c0,0,20.513,3.327,31.602-0.37
					c0,0,15.523-5.175,9.979,2.957c0,0,23.655,1.109,50.267-3.326c0,0,13.676-3.696,8.501,9.24c0,0-15.524,17.372-68.008,8.501"/>
			</g>
			<path fill="none" stroke="#58595B" stroke-width="1.3305" d="M111.317,40.292c-5.535,1.844-10.98,5.881-9.016,14.718
				c0,0,2.587,2.957,5.174,2.218"/>
			<path fill="none" stroke="#58595B" stroke-width="1.3305" d="M114.401,45.59c-4.608,2.525-8.699,7.151-4.708,15.333
				c0,0,1.848,1.849,5.914,1.109"/>
			<path fill="none" stroke="#58595B" stroke-width="1.3305" d="M140.001,69.425c0,0-8.871,2.957-7.023-9.979
				c0,0,0.286-2.07,0.888-4.579"/>
			<path fill="none" stroke="#58595B" stroke-width="1.3305" d="M134.457,67.946c0,0-13.306,3.327-10.349-11.828
				c0,0,0.647-1.571,1.802-3.419"/>
			<path fill="none" stroke="#58595B" stroke-width="1.3305" d="M243.862,48.357c4.435,0.739,4.805-3.327,4.805-3.327
				c0.301-10.229-10.419-10.907-14.417-10.806"/>
			<path fill="none" stroke="#58595B" stroke-width="1.3305" d="M231.361,38.458c6.127,1.403,13.669,5.196,11.392,15.443
				c0,0-2.587,2.957-5.174,2.217"/>
			<path fill="none" stroke="#58595B" stroke-width="1.3305" d="M227.42,43.032c5.476,1.999,12.869,6.68,7.941,16.783
				c0,0-1.848,1.848-5.914,1.108"/>
			<path fill="none" stroke="#58595B" stroke-width="1.3305" d="M205.052,68.316c0,0,8.871,2.957,7.023-9.979
				c0,0-0.501-3.634-1.577-7.107"/>
			<path fill="none" stroke="#58595B" stroke-width="1.3305" d="M210.597,66.837c0,0,13.306,3.327,10.35-11.828
				c0,0-1.032-2.504-2.815-4.909"/>
			<path fill="none" stroke="#58595B" stroke-width="1.3305" d="M219.837,64.989c0,0,10.349,2.587,9.979-8.131
				c0,0-2.318-5.794-6.219-9.674"/>
			<path fill="none" stroke="#58595B" stroke-width="1.3305" d="M247.927,40.595c0,0,8.871-2.033,5.359-9.425
				c0,0-0.857-1.013-3.162-1.788"/>
			<path fill="none" stroke="#58595B" stroke-width="1.3305" d="M101.192,49.466c-4.435,0.739-4.805-3.327-4.805-3.327
				c-0.231-7.854,6.035-10.077,10.767-10.641"/>
			<path fill="none" stroke="#58595B" stroke-width="1.3305" d="M125.217,66.098c0,0-10.349,2.587-9.979-8.131
				c0,0,1.627-4.068,4.451-7.67"/>
			<path fill="none" stroke="#58595B" stroke-width="1.3305" d="M96.757,41.334c0,0-8.871-2.033-5.359-9.425
				c0,0,1.076-1.272,4.06-2.054"/>
			<path fill="#FFFFFF" d="M81.603,9.178c0,0,6.653,1.479,26.612-0.739c0,0,13.306-3.696,19.589,3.327c0,0,3.696,5.914-5.175,1.848
				c0,0-2.217-5.914-18.85-1.848C103.78,11.766,83.821,14.353,81.603,9.178z"/>
			<path fill="#FFFFFF" d="M263.082,8.439c0,0-9.979,1.848-26.612-0.739c0,0-13.306-3.696-19.589,3.327c0,0-3.696,5.914,5.175,1.848
				c0,0,2.217-5.914,18.85-1.848C240.905,11.026,260.863,13.614,263.082,8.439z"/>
			<g>
				<path fill="#FFFFFF" d="M99.714,48.727c0.666,1.93-2.217-1.848-2.217-1.848c-1.294-8.686,10.534-9.24,10.534-9.24
					S97.866,43.367,99.714,48.727z"/>
				<path fill="#FFFFFF" d="M105.997,54.64c0.475,0.875-2.402-1.478-2.402-1.478c-2.587-9.056,10.349-11.273,10.349-11.273
					S102.486,48.172,105.997,54.64z"/>
				<path fill="#FFFFFF" d="M113.205,60.369c0.951,1.038-2.218-1.293-2.218-1.293c-2.218-9.794,7.208-13.121,7.208-13.121
					S109.139,55.934,113.205,60.369z"/>
				<path fill="#FFFFFF" d="M121.706,63.696c0.426,1.276-2.218-0.739-2.218-0.739c-3.327-6.838,4.25-14.045,4.25-14.045
					S119.857,58.151,121.706,63.696z"/>
				<path fill="#FFFFFF" d="M130.761,65.359c1.074,1.033-2.587-0.37-2.587-0.37c-6.098-6.653,2.033-14.415,2.033-14.415
					S125.956,60.739,130.761,65.359z"/>
				<path fill="#FFFFFF" d="M138.153,67.207c1.232,1.102-2.218-0.37-2.218-0.37c-3.696-6.838,0.554-15.893,0.554-15.893
					S134.642,64.065,138.153,67.207z"/>
				<path fill="#FFFFFF" d="M103.041,32.464c0,0-8.686-1.293-9.24,3.511c0,0-0.185,3.881,1.848,3.142
					C95.648,39.117,97.126,33.018,103.041,32.464z"/>
			</g>
			<g>
				<path fill="#FFFFFF" d="M244.97,47.618c-0.665,1.93,2.218-1.848,2.218-1.848c1.294-8.686-10.534-9.24-10.534-9.24
					S246.818,42.258,244.97,47.618z"/>
				<path fill="#FFFFFF" d="M238.687,53.532c-0.475,0.875,2.403-1.479,2.403-1.479c2.587-9.056-10.349-11.273-10.349-11.273
					S242.198,47.063,238.687,53.532z"/>
				<path fill="#FFFFFF" d="M231.48,59.26c-0.951,1.038,2.218-1.293,2.218-1.293c2.217-9.795-7.208-13.121-7.208-13.121
					S235.545,54.825,231.48,59.26z"/>
				<path fill="#FFFFFF" d="M222.979,62.587c-0.426,1.276,2.217-0.739,2.217-0.739c3.327-6.838-4.25-14.045-4.25-14.045
					S224.827,57.043,222.979,62.587z"/>
				<path fill="#FFFFFF" d="M213.923,64.25c-1.074,1.032,2.587-0.37,2.587-0.37c6.099-6.653-2.033-14.415-2.033-14.415
					S218.729,59.63,213.923,64.25z"/>
				<path fill="#FFFFFF" d="M206.531,66.098c-1.232,1.103,2.217-0.37,2.217-0.37c3.696-6.838-0.554-15.893-0.554-15.893
					S210.042,62.957,206.531,66.098z"/>
				<path fill="#FFFFFF" d="M241.644,31.355c0,0,8.686-1.293,9.24,3.511c0,0,0.185,3.881-1.848,3.142
					C249.036,38.008,247.558,31.909,241.644,31.355z"/>
			</g>
			<g>
				<path fill="none" stroke="#000000" stroke-width="1.4784" stroke-miterlimit="8" d="M171.788,13.614
					c0,0-11.458,11.088-23.285,2.587l-10.349,9.98l2.218,4.805v46.201c0,0-2.587,14.415,10.718,17.741
					c0,0,14.045,1.848,21.438,12.567c7.392-10.719,21.438-12.567,21.438-12.567c13.306-3.326,10.718-17.741,10.718-17.741V30.985
					l2.218-4.805l-10.349-9.98c-11.828,8.501-23.286-2.587-23.286-2.587l-0.832-0.739L171.788,13.614z"/>
			</g>
			<path fill="none" stroke="#FFFFFF" stroke-width="1.1088" d="M70.515,7.146c0,0,12.382,28.09,39.548,18.296"/>
			<path fill="none" stroke="#6D6F71" stroke-width="1.1088" d="M279.896,4.835c0,0,2.218-4.62-7.946-0.924
				c0,0-8.131,26.611-35.852,20.144l-0.924-1.294c1.664-1.848,0.185-3.88,0.185-3.88c-4.805-3.142-5.359,2.402-5.359,2.402
				c2.772,11.088,18.48,7.946,18.48,7.946c26.206-3.792,30.834-19.856,31.324-21.945"/>
			<path fill="none" stroke="#FFFFFF" stroke-width="1.1088" d="M274.352,6.868c0,0-12.382,28.09-39.548,18.296"/>
		</g>
		<g>
			<path fill="#FFFFFF" d="M15.443,6.221c0,0,27.721,5.914,46.94,3.327c0,0,4.066,2.587-0.369,2.587
				C62.014,12.135,47.968,15.462,15.443,6.221z"/>
		</g>
		<g>
			<path fill="#FFFFFF" d="M329.242,5.852c0,0-27.721,5.914-46.941,3.326c0,0-4.065,2.587,0.37,2.587
				C282.67,11.766,296.716,15.092,329.242,5.852z"/>
		</g>
	</g>
</g>
</svg>
